<svg width="24" height="24" viewBox="0 0 24 24" fill="none" xmlns="http://www.w3.org/2000/svg">
  <path
    d="M9.14034 20.7821V17.7152C9.14032 16.9381 9.77203 16.3067 10.5545 16.3018H13.4276C14.2135 16.3018 14.8507 16.9346 14.8507 17.7152V20.7732C14.8507 21.4473 15.3982 21.9951 16.0769 22H18.037C18.9525 22.0023 19.8312 21.6428 20.4794 21.0007C21.1276 20.3586 21.4919 19.4868 21.4919 18.5775V9.86585C21.4918 9.13139 21.1641 8.43471 20.5968 7.9635L13.9377 2.67427C12.7737 1.74912 11.1112 1.77901 9.98167 2.74538L3.4658 7.9635C2.87176 8.42082 2.51671 9.11956 2.49916 9.86585V18.5686C2.49916 20.4637 4.04595 22 5.95401 22H7.86939C8.19614 22.0023 8.51034 21.8751 8.74223 21.6464C8.97413 21.4178 9.10455 21.1067 9.10454 20.7821H9.14034Z"
    fill="currentColor"/>
</svg>
