<svg width="20" height="20" viewBox="0 0 20 20" fill="none" xmlns="http://www.w3.org/2000/svg">
  <path
    d="M7.14034 18.7821V15.7152C7.14032 14.9381 7.77203 14.3067 8.5545 14.3018H11.4276C12.2135 14.3018 12.8507 14.9346 12.8507 15.7152V18.7732C12.8507 19.4473 13.3982 19.9951 14.0769 20H16.037C16.9525 20.0023 17.8312 19.6428 18.4794 19.0007C19.1276 18.3586 19.4919 17.4868 19.4919 16.5775V7.86585C19.4918 7.13139 19.1641 6.43471 18.5968 5.9635L11.9377 0.674268C10.7737 -0.250877 9.11122 -0.220992 7.98167 0.745384L1.4658 5.9635C0.871758 6.42082 0.516706 7.11956 0.499161 7.86585V16.5686C0.499161 18.4637 2.04595 20 3.95401 20H5.86939C6.19614 20.0023 6.51034 19.8751 6.74223 19.6464C6.97413 19.4178 7.10455 19.1067 7.10454 18.7821H7.14034Z" fill="currentColor"/>
</svg>
