<svg width="24" height="24" viewBox="0 0 24 24" fill="none" xmlns="http://www.w3.org/2000/svg">
  <path
    d="M17.5672 14.32C17.3132 14.571 17.1966 14.934 17.2544 15.29L18.126 20.21C18.1995 20.627 18.027 21.049 17.6848 21.29C17.3495 21.54 16.9034 21.57 16.5377 21.37L12.1956 19.06C12.0446 18.978 11.877 18.934 11.7054 18.929H11.4397C11.3476 18.943 11.2574 18.973 11.175 19.019L6.83187 21.34C6.61716 21.45 6.37402 21.489 6.13579 21.45C5.5554 21.338 5.16814 20.774 5.26324 20.179L6.13579 15.259C6.19363 14.9 6.07696 14.535 5.82304 14.28L2.28285 10.78C1.98677 10.487 1.88383 10.047 2.01912 9.65C2.15049 9.254 2.48579 8.965 2.89069 8.9L7.76324 8.179C8.13383 8.14 8.45932 7.91 8.62598 7.57L10.773 3.08C10.824 2.98 10.8897 2.888 10.9691 2.81L11.0574 2.74C11.1034 2.688 11.1564 2.645 11.2152 2.61L11.3221 2.57L11.4887 2.5H11.9015C12.2701 2.539 12.5946 2.764 12.7642 3.1L14.9397 7.57C15.0966 7.897 15.4015 8.124 15.7534 8.179L20.626 8.9C21.0377 8.96 21.3819 9.25 21.5181 9.65C21.6466 10.051 21.5358 10.491 21.2338 10.78L17.5672 14.32Z"
    fill="currentColor"/>
</svg>
