<svg width="21" height="20" viewBox="0 0 21 20" fill="none" xmlns="http://www.w3.org/2000/svg">
  <path
    d="M16.5672 12.32C16.3132 12.571 16.1966 12.934 16.2544 13.29L17.126 18.21C17.1995 18.627 17.027 19.049 16.6848 19.29C16.3495 19.54 15.9034 19.57 15.5377 19.37L11.1956 17.06C11.0446 16.978 10.877 16.934 10.7054 16.929H10.4397C10.3476 16.943 10.2574 16.973 10.175 17.019L5.83187 19.34C5.61716 19.45 5.37402 19.489 5.13579 19.45C4.5554 19.338 4.16814 18.774 4.26324 18.179L5.13579 13.259C5.19363 12.9 5.07696 12.535 4.82304 12.28L1.28285 8.78C0.986768 8.487 0.883826 8.047 1.01912 7.65C1.15049 7.254 1.48579 6.965 1.89069 6.9L6.76324 6.179C7.13383 6.14 7.45932 5.91 7.62598 5.57L9.77304 1.08C9.82402 0.98 9.88971 0.888 9.96912 0.81L10.0574 0.74C10.1034 0.688 10.1564 0.645 10.2152 0.61L10.3221 0.57L10.4887 0.5H10.9015C11.2701 0.539 11.5946 0.764 11.7642 1.1L13.9397 5.57C14.0966 5.897 14.4015 6.124 14.7534 6.179L19.626 6.9C20.0377 6.96 20.3819 7.25 20.5181 7.65C20.6466 8.051 20.5358 8.491 20.2338 8.78L16.5672 12.32Z" fill="currentColor"/>
</svg>
