<svg width="50" height="35" viewBox="0 0 50 35" fill="none" xmlns="http://www.w3.org/2000/svg">
  <path
    d="M42.1875 0.59375H25V4.27656L21.3953 6.0625H25V11.5312H21.3953L25 13.4023V17H24.85L14.8438 12.0398V17H10.1562V12.0398L0.182812 17H0V26.375C0 31.1211 2.63516 34.9688 7.8125 34.9688H42.1875C47.3648 34.9688 50 31.1211 50 26.375V9.1875C50 4.44141 47.3648 0.59375 42.1875 0.59375Z"
    fill="#2B3990"/>
  <path d="M25 2.4251V2.40479L17.8359 6.0626L25 2.4251Z" fill="#4189DD"/>
  <path d="M0 11.5312V13.4312L3.66094 11.5312H0Z" fill="#2B3990"/>
  <path d="M0.946863 4.71899C0.739058 5.1521 0.567127 5.60153 0.4328 6.06274H3.66093L0.946863 4.71899Z" fill="#2B3990"/>
  <path d="M25 0.601563V0.59375H14.8438V5.82734L25 0.601563Z" fill="#2B3990"/>
  <path d="M10.1563 5.82734V0.59375H7.81252C5.76565 0.59375 4.12268 1.20156 2.87659 2.22266L10.1563 5.82734Z"
        fill="#2B3990"/>
  <path
    d="M25 6.84375V6.0625H21.3953L25 4.27656V2.425L17.8359 6.0625H15.4625L25 1.19297V0.601563L14.8438 5.82734V0.59375H14.0625V6.84375H25Z"
    fill="white"/>
  <path
    d="M14.0625 17H14.8438V12.0398L24.85 17H25V15.2187L17.8359 11.5312H20.2102L25 14.0078V13.4023L21.3953 11.5312H25V10.75H14.0625V17Z"
    fill="white"/>
  <path
    d="M10.1562 12.0398V17H10.9375V10.75H0V11.5312H3.66094L0 13.4312V15.2266L7.22031 11.5312H9.59531L0 16.4375V17H0.182812L10.1562 12.0398Z"
    fill="white"/>
  <path
    d="M2.87656 2.22656C2.46562 2.56328 2.09922 2.94531 1.77578 3.36641L7.22031 6.06641H4.84609L1.17813 4.26797C1.09653 4.4172 1.01942 4.56883 0.946875 4.72266L3.66094 6.06641H0.432813C0.357813 6.32109 0.292969 6.58125 0.238281 6.84766H10.9375V0.597656H10.1562V5.83125L2.87656 2.22656Z"
    fill="white"/>
  <path
    d="M10.9375 17H14.0625V10.75H25V7.10391L14.0625 7.625V0.59375H10.9375V7.625L0.178125 7.16328C0.0601065 7.83157 0.000506412 8.50887 0 9.1875L0 10.75H10.9375V17Z"
    fill="#FF0000"/>
  <path d="M14.0625 7.625L25 7.10391V6.84375H14.0625V7.625Z" fill="#FF0000"/>
  <path d="M0.178101 7.16328L10.9375 7.625V6.84375H0.238257C0.215601 6.94922 0.196851 7.05547 0.178101 7.16328Z"
        fill="#FF0000"/>
  <path d="M7.22034 6.0624L1.77034 3.36865C1.55189 3.65279 1.35374 3.95197 1.17737 4.26396L4.84612 6.0624H7.22034Z"
        fill="#FF0000"/>
  <path d="M1.77502 3.36255L1.77112 3.3688L7.22034 6.06255L1.77502 3.36255Z" fill="#FF0000"/>
  <path d="M17.836 6.0624L25 2.40459V1.19287L15.4625 6.0624H17.836Z" fill="#FF0000"/>
  <path d="M17.8359 11.5312L25 15.1891V14.0078L20.2102 11.5312H17.8359Z" fill="#FF0000"/>
  <path d="M25 15.2188V15.1891L17.8359 11.5312L25 15.2188Z" fill="#FF0000"/>
  <path d="M7.22031 11.5312L0 15.2445V16.4375L9.59531 11.5312H7.22031Z" fill="#FF0000"/>
  <path d="M0 15.2266V15.2445L7.22031 11.5312L0 15.2266Z" fill="#FF0000"/>
  <path
    d="M11.5179 24.3127L12.5 21.3135L13.4601 24.3127L16.3773 23.1877L14.6531 25.7971L17.3672 27.3986L14.2265 27.6721L14.6539 30.7932L12.5008 28.5158L10.3344 30.7932L10.7531 27.6721L7.63513 27.4143L10.3258 25.8049L8.59216 23.1877L11.5179 24.3127Z"
    fill="white"/>
  <path
    d="M36.6852 25.3651L37.0703 24.1799L37.4516 25.3651L38.6016 24.9221L37.9235 25.9534L38.9953 26.5862L37.7578 26.6956L37.9235 27.926L37.0703 27.0268L36.2188 27.926L36.3821 26.6956L35.15 26.5862L36.211 25.9534L35.5313 24.9221L36.6852 25.3651Z"
    fill="white"/>
  <path
    d="M30.0758 14.9351L30.4633 13.7507L30.843 14.9351L31.9953 14.4914L31.3125 15.5234L32.386 16.1562L31.1453 16.2656L31.3125 17.4968L30.4633 16.5968L29.6071 17.4968L29.7735 16.2656L28.5406 16.1593L29.6047 15.5234L28.9219 14.4914L30.0758 14.9351Z"
    fill="white"/>
  <path
    d="M42.5625 13.1874L42.9484 12.0022L43.3281 13.1874L44.4805 12.7428L43.7969 13.7749L44.875 14.4077L43.6305 14.5147L43.7969 15.7475L42.9484 14.8514L42.0922 15.7475L42.2578 14.5147L41.0234 14.4108L42.0891 13.778L41.4039 12.7428L42.5625 13.1874Z"
    fill="white"/>
  <path
    d="M39.9063 18.253L40.0938 17.6616L40.2859 18.253L40.8594 18.0312L40.5219 18.5468L41.0547 18.8632L40.4383 18.9163L40.5219 19.5312L40.0938 19.0835L39.6695 19.5312L39.7523 18.9163L39.1328 18.8647L39.668 18.5483L39.3281 18.0312L39.9063 18.253Z"
    fill="white"/>
  <path
    d="M36.6852 7.74199L37.0703 6.55762L37.4516 7.74199L38.6016 7.29824L37.9235 8.33027L38.9953 8.96308L37.7578 9.07012L37.9235 10.3037L37.0703 9.40371L36.2188 10.3037L36.3821 9.07012L35.15 8.96621L36.211 8.3334L35.5313 7.29824L36.6852 7.74199Z"
    fill="white"/>
</svg>
