<svg width="50" height="35" viewBox="0 0 50 35" fill="none" xmlns="http://www.w3.org/2000/svg">
  <path d="M0 11.75H50V22.6875H0V11.75Z" fill="#F0F0F0"/>
  <path
    d="M42.1875 0.03125H7.8125C2.63516 0.03125 0 3.87891 0 8.625V11.75H50V8.625C50 3.87891 47.3648 0.03125 42.1875 0.03125Z"
    fill="#C5C5C5"/>
  <path
    d="M0 25.8125C0 30.5586 2.63516 34.4062 7.8125 34.4062H42.1875C47.3648 34.4062 50 30.5586 50 25.8125V22.6875H0V25.8125Z"
    fill="#8190A2"/>
  <path fill-rule="evenodd" clip-rule="evenodd"
        d="M25.242 12.2056C26.2402 12.2056 27.2159 12.5017 28.0458 13.0564C28.8757 13.6111 29.5223 14.3996 29.904 15.3219C30.2856 16.2443 30.3851 17.2591 30.1898 18.238C29.9945 19.217 29.5132 20.1159 28.8068 20.8212C28.1004 21.5265 27.2007 22.0064 26.2215 22.2002C25.2423 22.394 24.2276 22.293 23.3058 21.9099C22.384 21.5268 21.5966 20.8789 21.0432 20.0482C20.4897 19.2175 20.1951 18.2413 20.1967 17.2431C20.1989 15.9064 20.7315 14.6252 21.6774 13.6808C22.6233 12.7363 23.9053 12.2058 25.242 12.2056ZM21.8787 14.3892C21.9654 14.4876 21.981 14.5931 21.9232 14.6813C21.8987 14.722 21.8609 14.7529 21.8162 14.7688C21.7819 14.7816 21.745 14.7859 21.7086 14.7812C21.6723 14.7766 21.6376 14.7632 21.6076 14.7423C21.4718 14.9367 21.3524 15.1421 21.2506 15.3563C21.3685 15.4337 21.4076 15.5306 21.3685 15.6376C21.3476 15.6921 21.3063 15.7363 21.2534 15.7608C21.2004 15.7853 21.14 15.7882 21.0849 15.7688C21.0287 15.8813 20.9045 16.3563 20.9029 16.4563C20.9546 16.4662 21.0012 16.4942 21.0342 16.5353C21.069 16.576 21.0869 16.6286 21.0842 16.6821C21.0693 16.829 20.9787 16.8915 20.8404 16.897C20.8185 17.0384 20.8209 17.5118 20.8428 17.6048C20.9896 17.6204 21.067 17.6845 21.0795 17.7962C21.0967 17.9165 21.0388 17.9946 20.8982 18.0493C20.9404 18.2813 21.0006 18.5095 21.0795 18.7329C21.1346 18.7163 21.1936 18.7182 21.2474 18.7384C21.2998 18.761 21.3412 18.8001 21.3631 18.854C21.3826 18.8962 21.3865 18.9399 21.3763 18.986C21.3691 19.0203 21.3539 19.0524 21.3321 19.0798C21.3102 19.1072 21.2823 19.1291 21.2506 19.1438C21.3553 19.361 21.4709 19.5657 21.6076 19.7579C21.7295 19.6978 21.8357 19.7118 21.9076 19.7978C21.9392 19.8331 21.9572 19.8785 21.9584 19.9259C21.9608 19.9609 21.9547 19.996 21.9405 20.0281C21.9264 20.0602 21.9046 20.0884 21.8771 20.1103C22.0334 20.2931 22.1998 20.4603 22.381 20.6142C22.4834 20.5243 22.5896 20.5103 22.681 20.5743C22.7224 20.6032 22.7513 20.6415 22.7646 20.6884C22.7742 20.7216 22.7762 20.7565 22.7705 20.7905C22.7648 20.8246 22.7516 20.8569 22.7318 20.8853C22.9295 21.0212 23.1334 21.1384 23.3467 21.2399C23.4295 21.1235 23.524 21.0845 23.6264 21.1235C23.6709 21.1396 23.7096 21.1687 23.7373 21.2071C23.7764 21.2696 23.7818 21.3384 23.7592 21.4118C23.9842 21.4915 24.2107 21.5524 24.4451 21.5938C24.4912 21.4618 24.5709 21.4001 24.6771 21.4079C24.7264 21.4118 24.7709 21.4267 24.8099 21.4603C24.8646 21.5103 24.8904 21.5735 24.8857 21.6517C25.1264 21.6688 25.3615 21.6704 25.5951 21.6517C25.6123 21.5009 25.6724 21.4251 25.7935 21.4079C25.8395 21.4016 25.8863 21.4109 25.9264 21.4345C25.9556 21.451 25.9808 21.4739 26 21.5015C26.0192 21.5291 26.0319 21.5607 26.0373 21.5938C26.2732 21.5501 26.5021 21.4899 26.7232 21.411C26.7037 21.2634 26.7396 21.1751 26.8389 21.129C26.875 21.1135 26.9145 21.1073 26.9537 21.111C26.9943 21.1142 27.031 21.1267 27.0607 21.1532C27.0896 21.1774 27.1139 21.2071 27.142 21.2376C27.3549 21.1371 27.5593 21.0192 27.7529 20.8853C27.6732 20.7603 27.7201 20.6407 27.7849 20.5876C27.8076 20.5682 27.8338 20.5535 27.8621 20.5444C27.8905 20.5353 27.9204 20.5319 27.9501 20.5344C27.9797 20.537 28.0086 20.5454 28.035 20.5592C28.0614 20.573 28.0847 20.592 28.1037 20.6149C28.2842 20.4603 28.4537 20.2923 28.6053 20.1118C28.517 20.011 28.4998 19.9048 28.5646 19.8134C28.5909 19.7724 28.6311 19.7424 28.6779 19.729C28.7112 19.7184 28.7465 19.7157 28.7811 19.721C28.8156 19.7262 28.8485 19.7394 28.8771 19.7595C29.0139 19.5626 29.1326 19.3587 29.2342 19.1446C29.1201 19.0681 29.0787 18.9782 29.1131 18.8759C29.1255 18.8304 29.1531 18.7904 29.1912 18.7626C29.2215 18.7414 29.2564 18.7276 29.293 18.7222C29.3296 18.7167 29.367 18.7199 29.4021 18.7313C29.4529 18.6212 29.5795 18.1571 29.5865 18.0446C29.5325 18.0348 29.4837 18.006 29.449 17.9634C29.4308 17.9423 29.4172 17.9177 29.409 17.891C29.4008 17.8644 29.3982 17.8364 29.4014 17.8087C29.4043 17.7592 29.4248 17.7124 29.4592 17.6767C29.4827 17.6519 29.5114 17.6327 29.5434 17.6205C29.5753 17.6084 29.6095 17.6035 29.6435 17.6063C29.6631 17.37 29.6631 17.1325 29.6435 16.8962C29.4943 16.8813 29.4232 16.8235 29.4037 16.7056C29.3949 16.661 29.4015 16.6147 29.4224 16.5743C29.4385 16.5431 29.4617 16.5161 29.49 16.4953C29.5183 16.4746 29.5511 16.4607 29.5857 16.4548C29.5447 16.2214 29.4838 15.9919 29.4037 15.7688C29.2592 15.7931 29.1701 15.754 29.1224 15.654C29.1101 15.6273 29.1032 15.5983 29.1021 15.5689C29.101 15.5395 29.1058 15.5101 29.1162 15.4825C29.1266 15.455 29.1424 15.4298 29.1627 15.4084C29.1829 15.387 29.2072 15.3698 29.2342 15.3579C29.1329 15.1431 29.0135 14.9374 28.8771 14.7431C28.7514 14.8032 28.649 14.7892 28.5771 14.7032C28.5452 14.6669 28.5275 14.6203 28.5271 14.572C28.5257 14.5376 28.5322 14.5034 28.5464 14.4721C28.5605 14.4408 28.5817 14.4132 28.6084 14.3915C28.4541 14.2109 28.2861 14.0424 28.106 13.8876C27.9982 13.9798 27.8935 13.9915 27.8045 13.9274C27.764 13.9005 27.7344 13.8601 27.7209 13.8134C27.7112 13.7806 27.7091 13.746 27.7147 13.7123C27.7204 13.6786 27.7338 13.6466 27.7537 13.6188C27.5589 13.4831 27.3533 13.3637 27.1389 13.2618C27.0584 13.3774 26.9678 13.4157 26.8654 13.3813C26.8201 13.3668 26.7804 13.3384 26.7521 13.3001C26.7315 13.2696 26.7184 13.2347 26.7138 13.1982C26.7091 13.1617 26.7132 13.1246 26.7256 13.0899C26.5027 13.0093 26.2732 12.9484 26.0396 12.9079C25.9951 13.0345 25.9146 13.1001 25.8107 13.0938C25.7622 13.0923 25.7155 13.0747 25.6779 13.0438C25.6501 13.0204 25.6283 12.9905 25.6146 12.9567C25.6008 12.923 25.5955 12.8864 25.599 12.8501C25.363 12.83 25.1256 12.8303 24.8896 12.8509C24.8732 12.9915 24.8123 13.072 24.7084 13.0892C24.6617 13.0991 24.613 13.0931 24.5701 13.072C24.5381 13.0562 24.5104 13.033 24.4892 13.0043C24.468 12.9756 24.454 12.9423 24.4482 12.9071C24.2147 12.9496 23.9851 13.011 23.7615 13.0907C23.7865 13.229 23.7474 13.3196 23.6521 13.3688C23.6107 13.3899 23.567 13.3985 23.5185 13.3899C23.4821 13.385 23.4477 13.3706 23.4185 13.3483C23.3893 13.326 23.3664 13.2964 23.3521 13.2626C23.2185 13.3126 22.7935 13.5587 22.7373 13.6204C22.7951 13.736 22.7818 13.8384 22.7021 13.9118C22.6796 13.9317 22.6533 13.9469 22.6248 13.9564C22.5964 13.9659 22.5662 13.9696 22.5363 13.9673C22.5063 13.965 22.4772 13.9567 22.4505 13.9428C22.4238 13.929 22.4002 13.91 22.381 13.8868C22.2008 14.0409 22.0328 14.2089 21.8787 14.3892Z"
        fill="#8190A2"/>
  <path fill-rule="evenodd" clip-rule="evenodd"
        d="M27.4058 20.9899C27.3965 20.9797 27.3871 20.9727 27.3801 20.9618C26.9259 20.2674 26.4704 19.5739 26.0136 18.8813C26.0035 18.8618 25.9918 18.8422 25.9824 18.8204C25.8761 18.5727 25.7722 18.325 25.6636 18.0782C25.66 18.0654 25.655 18.0531 25.6488 18.0415C25.6051 18.0579 25.5652 18.0766 25.5183 18.0946L25.534 18.1344C25.6316 18.3743 25.7254 18.6149 25.8246 18.8547C25.8511 18.9188 25.8621 18.986 25.8761 19.0532C25.9527 19.4118 26.0246 19.7719 26.1019 20.1313L26.366 21.4149C26.3673 21.4179 26.3678 21.4213 26.3674 21.4246C26.3669 21.4279 26.3657 21.431 26.3636 21.4336L26.3527 21.4063C26.1386 20.7508 25.9191 20.0961 25.7043 19.4407C25.6613 19.3125 25.623 19.186 25.5761 19.0579C25.5543 18.9938 25.5472 18.9282 25.5371 18.8618C25.5097 18.6758 25.4863 18.4883 25.4558 18.3024C25.4519 18.2579 25.4449 18.2141 25.4386 18.1711C25.4367 18.1533 25.4339 18.1356 25.4301 18.118C25.3832 18.1227 25.3402 18.129 25.2933 18.1344C25.2933 18.1532 25.2949 18.1727 25.2965 18.1922C25.3238 18.4211 25.3472 18.6508 25.3801 18.879C25.3972 19.004 25.3886 19.1266 25.3816 19.2516C25.3769 19.3571 25.3699 19.4625 25.3652 19.5688C25.3511 19.7829 25.3402 19.9961 25.3254 20.2094L25.3019 20.65C25.2886 20.9 25.273 21.1493 25.2597 21.3977C25.2535 21.468 25.2519 21.5399 25.2449 21.6086L25.2261 21.3719L25.2019 20.8594L25.1738 20.4024C25.166 20.2461 25.1558 20.0907 25.1472 19.9344C25.1402 19.8321 25.1363 19.7297 25.1301 19.629C25.1215 19.4672 25.1113 19.3055 25.1035 19.1454C25.0958 19.06 25.0979 18.974 25.1097 18.8891C25.1261 18.7735 25.1386 18.6555 25.1527 18.5383C25.1683 18.4227 25.1816 18.3063 25.1957 18.1922C25.1972 18.1743 25.1972 18.1555 25.1996 18.1344L25.0629 18.1165C25.059 18.1477 25.0519 18.1782 25.0465 18.2094C25.014 18.4481 24.9807 18.6866 24.9465 18.925C24.9371 19.018 24.9004 19.1039 24.8691 19.1907C24.6285 19.9235 24.3871 20.6571 24.1433 21.3891C24.1379 21.4024 24.1355 21.4149 24.1254 21.4274C24.1254 21.418 24.1254 21.411 24.1293 21.4024C24.2301 20.9086 24.3316 20.4141 24.4363 19.9204C24.5035 19.5922 24.573 19.2649 24.6394 18.9375L24.6582 18.8836C24.759 18.636 24.8558 18.386 24.959 18.1383C24.9626 18.1237 24.9678 18.1096 24.9746 18.0961C24.9316 18.0777 24.8883 18.0597 24.8449 18.0422C24.8394 18.0563 24.8308 18.068 24.8261 18.0821C24.7183 18.3305 24.6129 18.5797 24.5051 18.8282C24.4983 18.8468 24.49 18.8649 24.4801 18.8821C24.0191 19.5804 23.5594 20.2796 23.1011 20.9797C23.0949 20.9903 23.0866 20.9996 23.0769 21.0071C23.0808 20.9946 23.0879 20.9844 23.0926 20.9735L24.2222 18.7336C24.232 18.7133 24.244 18.6942 24.2582 18.6766L24.741 18.029C24.7511 18.018 24.7574 18.0079 24.7668 17.9961C24.7269 17.9672 24.6949 17.9407 24.6551 17.9102C24.6465 17.9204 24.6386 17.929 24.6316 17.9391C24.4629 18.1508 24.2965 18.3641 24.1316 18.575C24.1129 18.5946 24.0957 18.6149 24.0746 18.6329C23.459 19.1836 22.8433 19.7313 22.2254 20.2829C22.2129 20.293 22.2004 20.304 22.1847 20.311C22.1918 20.304 22.1957 20.2954 22.2004 20.2899C22.7074 19.7235 23.2105 19.1579 23.7152 18.5915C23.7441 18.5602 23.773 18.529 23.8004 18.4954C23.8582 18.4282 23.923 18.3688 23.9933 18.3157L24.5543 17.8743C24.5668 17.8649 24.5761 17.8547 24.5902 17.8454C24.5625 17.8079 24.5338 17.7712 24.5043 17.7352C24.4918 17.743 24.4816 17.7508 24.4699 17.7594C24.2551 17.9204 24.0394 18.0797 23.8246 18.2414C23.8005 18.2596 23.7749 18.2755 23.748 18.2891C23.0144 18.6594 22.2769 19.0297 21.5418 19.4C21.5277 19.4063 21.5144 19.4141 21.498 19.4141L21.5277 19.393L22.8996 18.4946C23.1386 18.3375 23.3785 18.1805 23.616 18.0227C23.6363 18.011 23.6574 18.0008 23.6754 17.9915C23.9246 17.886 24.173 17.7797 24.4199 17.6735C24.4316 17.6688 24.4433 17.6641 24.4574 17.6571L24.4051 17.5282C24.3902 17.5321 24.3808 17.536 24.3691 17.5399C24.116 17.6407 23.8652 17.743 23.6105 17.843C23.5582 17.8625 23.5011 17.8719 23.4457 17.8836L21.7386 18.2383C21.5238 18.2844 21.3051 18.3297 21.0894 18.3743C21.0807 18.3763 21.0716 18.3752 21.0636 18.3711C21.123 18.3524 21.1824 18.3313 21.241 18.3118C21.9785 18.0688 22.7152 17.8266 23.4504 17.5821C23.5082 17.5625 23.5699 17.5571 23.6285 17.5477C23.866 17.5149 24.1027 17.4805 24.3379 17.4469C24.3523 17.4444 24.3666 17.4413 24.3808 17.4375C24.3761 17.3922 24.3691 17.3469 24.3652 17.3L24.2511 17.3125L23.7793 17.3696C23.691 17.3813 23.6035 17.3907 23.5168 17.4016C23.4957 17.404 23.4754 17.4047 23.4551 17.404L22.9582 17.375L22.6644 17.3586L22.1582 17.329L21.4199 17.2883C21.2418 17.279 21.0683 17.2672 20.891 17.2547C20.9191 17.2524 20.9504 17.2477 20.9808 17.2477L21.5863 17.2133L22.3863 17.168L23.0488 17.1305L23.4644 17.1055C23.4808 17.1047 23.5004 17.1071 23.5168 17.1086L23.9933 17.1657L24.3308 17.2063H24.3652C24.3691 17.1618 24.3761 17.1196 24.3808 17.0711C24.3519 17.0649 24.3191 17.0602 24.2902 17.0547C24.0816 17.0258 23.8746 16.9954 23.666 16.9649C23.6227 16.9599 23.5794 16.9542 23.5363 16.9477C23.5124 16.9445 23.4889 16.939 23.466 16.9313C22.8449 16.7274 22.2277 16.5219 21.6074 16.318C21.4348 16.2614 21.2624 16.2041 21.0902 16.1461C21.0753 16.1422 21.0613 16.1356 21.0488 16.1266L21.1574 16.1485L22.4832 16.4243C22.8379 16.4985 23.198 16.5719 23.5527 16.6469C23.5741 16.6516 23.595 16.6582 23.6152 16.6665C23.8652 16.7649 24.1129 16.8665 24.3652 16.9665L24.4027 16.9813C24.4199 16.9383 24.4386 16.8969 24.4574 16.8524C24.4447 16.8448 24.4313 16.8383 24.4176 16.8329C24.1691 16.7282 23.9215 16.6211 23.6738 16.5141C23.6544 16.5059 23.6356 16.4962 23.6176 16.4852C22.9168 16.0266 22.2191 15.5657 21.5176 15.1063C21.5083 15.1012 21.5009 15.0932 21.4965 15.0836L21.5246 15.0993C22.223 15.4508 22.9222 15.8024 23.6222 16.1532C23.7379 16.211 23.8504 16.2805 23.9535 16.3594C24.1238 16.4915 24.2972 16.618 24.4707 16.7477C24.4824 16.7563 24.4926 16.7641 24.5051 16.7719L24.591 16.6633L24.5605 16.6368L23.9254 16.1375C23.9035 16.1204 23.8863 16.1024 23.8676 16.0836C23.3144 15.4641 22.7605 14.8438 22.209 14.2243C22.201 14.2179 22.1948 14.2095 22.191 14.2C22.2074 14.2016 22.2136 14.2125 22.2207 14.2196C22.5558 14.5165 22.8879 14.8133 23.2207 15.1102L24.0816 15.8774C24.0972 15.8915 24.1121 15.9086 24.1261 15.9243L24.6191 16.5508C24.6316 16.5649 24.641 16.5797 24.6551 16.5985L24.7683 16.5118C24.7613 16.5008 24.7519 16.4922 24.7465 16.4821C24.5855 16.2672 24.4254 16.0516 24.2629 15.8375C24.2461 15.8123 24.2307 15.7863 24.2168 15.7594C23.8418 15.0211 23.4699 14.2797 23.0972 13.5407C23.0902 13.5266 23.0832 13.5157 23.0816 13.5008C23.0886 13.5086 23.0957 13.5157 23.1004 13.5227L23.8988 14.743L24.4636 15.6024C24.4832 15.6352 24.5051 15.6696 24.5176 15.7055C24.623 15.9461 24.7246 16.1875 24.8269 16.4282C24.834 16.4391 24.8386 16.4508 24.8457 16.4649L24.9754 16.411L24.9613 16.3782C24.8636 16.1344 24.7683 15.8907 24.6691 15.6485C24.6418 15.5868 24.6316 15.5227 24.6183 15.4586C24.5332 15.0516 24.4511 14.6438 24.366 14.236C24.2824 13.8438 24.2027 13.4547 24.1207 13.061C24.1191 13.0586 24.1207 13.0555 24.1238 13.0477L24.1926 13.2563C24.4379 13.993 24.6808 14.7313 24.9215 15.4696C24.9418 15.5274 24.9488 15.5907 24.9574 15.6508C24.9863 15.8555 25.0152 16.0618 25.048 16.268C25.0535 16.3071 25.0558 16.3461 25.0636 16.3891L25.1996 16.3719V16.3204C25.1801 16.1571 25.159 15.993 25.1402 15.8305C25.1285 15.7352 25.1199 15.6422 25.1066 15.5493C25.0988 15.4867 25.0988 15.4235 25.1066 15.361C25.1121 15.2547 25.1199 15.1493 25.1246 15.0438L25.1629 14.4071C25.1699 14.293 25.1722 14.1774 25.1793 14.0633C25.1894 13.9149 25.1972 13.7641 25.2058 13.6149C25.2129 13.5055 25.2183 13.3954 25.223 13.2868C25.2293 13.1579 25.2394 13.0297 25.2504 12.9016C25.2535 12.9368 25.2551 12.9727 25.2566 13.0102C25.2676 13.1672 25.2754 13.3243 25.2847 13.4821L25.3254 14.1977L25.3496 14.5993C25.3621 14.8313 25.373 15.0641 25.3863 15.2961C25.3902 15.3313 25.3918 15.3641 25.3941 15.3985C25.4043 15.4891 25.3863 15.579 25.3785 15.6688L25.3285 16.0782C25.3207 16.1555 25.309 16.2329 25.2996 16.311C25.298 16.3297 25.298 16.35 25.2926 16.3727C25.341 16.3797 25.3847 16.3844 25.4332 16.3907C25.4402 16.3571 25.4433 16.3258 25.4488 16.293C25.4863 16.0391 25.5222 15.7852 25.5582 15.5297C25.5613 15.511 25.5691 15.4915 25.5738 15.4719C25.8285 14.7079 26.0785 13.943 26.3316 13.1774C26.3441 13.1422 26.3535 13.1086 26.373 13.075C26.3709 13.0929 26.3681 13.1106 26.3644 13.1282C26.2504 13.6813 26.1316 14.2329 26.0183 14.7844C25.9676 15.043 25.9136 15.3024 25.8597 15.561C25.8559 15.5824 25.8491 15.6032 25.8394 15.6227L25.5379 16.3766C25.5324 16.3875 25.5285 16.3993 25.523 16.4133C25.5699 16.4313 25.6082 16.4493 25.6535 16.4672L25.6715 16.4297L25.9863 15.6899C25.9988 15.6649 26.0082 15.6407 26.0246 15.6204L27.3879 13.5407C27.3965 13.5297 27.4035 13.5188 27.4168 13.511C27.4113 13.5219 27.4074 13.5329 27.4004 13.5438L26.2793 15.7704C26.2676 15.7915 26.2558 15.8125 26.2418 15.8313C26.0793 16.0477 25.916 16.2641 25.7558 16.479C25.7481 16.4913 25.7395 16.503 25.7301 16.5141L25.841 16.6008C25.8498 16.5915 25.8579 16.5816 25.8652 16.5711C26.0308 16.3602 26.1957 16.1485 26.3636 15.9375C26.3822 15.9138 26.4028 15.8918 26.4254 15.8719C27.0426 15.3204 27.6605 14.7696 28.2785 14.2196C28.2886 14.211 28.2957 14.2024 28.3121 14.1977L28.2918 14.2227C28.0394 14.5079 27.7871 14.7915 27.5308 15.075C27.2261 15.4149 26.9254 15.754 26.623 16.0938C26.6074 16.111 26.5886 16.1258 26.5722 16.1399L25.9371 16.6391L25.9058 16.6641C25.9355 16.7016 25.9621 16.7375 25.9933 16.775L26.0269 16.75L26.6777 16.2625C26.6943 16.2507 26.7115 16.2398 26.7293 16.2297C27.4793 15.8532 28.2246 15.4782 28.9699 15.1016C28.9824 15.0961 28.9926 15.0915 29.0058 15.0915C28.9715 15.1141 28.9394 15.136 28.9051 15.1571C28.2308 15.6 27.5566 16.043 26.8801 16.486C26.8613 16.4969 26.8441 16.5079 26.8238 16.5165C26.5746 16.6243 26.323 16.7305 26.0761 16.8375L26.0363 16.8532C26.0574 16.8969 26.0722 16.9383 26.091 16.9821L26.1269 16.9704C26.3777 16.8711 26.6269 16.7672 26.8801 16.6711C26.9426 16.6461 27.0113 16.6352 27.0793 16.6211L28.2301 16.3821C28.5879 16.3086 28.9426 16.2336 29.3011 16.1594C29.334 16.1524 29.3644 16.1454 29.3988 16.1391C29.4074 16.1391 29.4152 16.1375 29.4277 16.1422L29.3183 16.1782C28.5551 16.4305 27.7941 16.6821 27.0308 16.9313C26.973 16.9516 26.909 16.9571 26.8488 16.9665C26.6777 16.9922 26.509 17.0149 26.3426 17.0391C26.2816 17.0477 26.2215 17.0571 26.1605 17.0649L26.116 17.0727C26.1207 17.1188 26.1277 17.1618 26.1308 17.2118L26.2488 17.1993L26.6707 17.1493C26.7761 17.136 26.8863 17.1211 26.9965 17.111C27.0457 17.1071 27.0957 17.1118 27.1465 17.1141C27.2535 17.1188 27.3605 17.1282 27.4722 17.1329L28.1035 17.1704C28.1972 17.1758 28.291 17.1797 28.3879 17.186L29.0316 17.2227C29.184 17.2321 29.341 17.2391 29.4926 17.2485C29.5302 17.2506 29.5677 17.254 29.6051 17.2586L29.491 17.268L29.0183 17.2938L28.4332 17.3282L27.9918 17.3516C27.7886 17.3641 27.5816 17.3758 27.3769 17.3891C27.2644 17.3938 27.1488 17.4047 27.0355 17.4055C26.9707 17.4071 26.9027 17.3946 26.8394 17.3875C26.7006 17.3713 26.5618 17.3546 26.423 17.3375L26.1566 17.3055H26.1308C26.1277 17.3508 26.1207 17.3954 26.116 17.443C26.3914 17.4838 26.6669 17.5236 26.9426 17.5625C27.0238 17.5727 27.0949 17.6047 27.1715 17.629L29.3933 18.3625C29.4078 18.3656 29.4214 18.3717 29.4332 18.3805C29.4144 18.3774 29.3965 18.3743 29.3777 18.3727L27.448 17.9704L26.9386 17.8641C26.9222 17.8594 26.9004 17.8532 26.8824 17.8446C26.6316 17.7454 26.3801 17.6438 26.1277 17.543L26.0941 17.5313C26.0759 17.5741 26.0568 17.6165 26.0371 17.6586L26.0785 17.6782C26.3277 17.7844 26.5754 17.8899 26.823 17.9969C26.8426 18.0055 26.8621 18.0157 26.8824 18.0297L28.9621 19.3922C28.9722 19.4 28.9855 19.4094 28.9941 19.4243C28.984 19.418 28.9722 19.4141 28.9636 19.4079L27.8801 18.8641C27.5019 18.6719 27.1207 18.4813 26.7386 18.2891C26.7143 18.277 26.6915 18.2621 26.6707 18.2446C26.4558 18.0844 26.2386 17.9235 26.0238 17.7618C26.0142 17.7537 26.0041 17.7464 25.9933 17.7399C25.9636 17.7758 25.9371 17.811 25.9058 17.8485L25.9355 17.8719C26.1449 18.0391 26.3582 18.2063 26.5683 18.3727C26.5923 18.3898 26.614 18.4098 26.6332 18.4321L28.2886 20.2844C28.2954 20.2937 28.3007 20.304 28.3043 20.3149C28.2957 20.3055 28.284 20.2993 28.2754 20.2922C27.6543 19.7368 27.0324 19.1844 26.4097 18.6297C26.3956 18.6172 26.383 18.603 26.3722 18.5875L25.866 17.9422C25.859 17.9321 25.8504 17.9227 25.8418 17.9125C25.8058 17.9422 25.7707 17.9688 25.7347 18C25.7379 18.0094 25.7449 18.0196 25.7511 18.029L26.2426 18.6836C26.2566 18.7027 26.2691 18.7228 26.2801 18.7438C26.6527 19.4829 27.0246 20.2235 27.3965 20.9633C27.4025 20.9734 27.4065 20.9845 27.4082 20.9961H27.4058V20.9899Z"
        fill="#8190A2"/>
  <path fill-rule="evenodd" clip-rule="evenodd"
        d="M27.3981 20.99C27.406 20.998 27.4108 21.0067 27.4172 21.0139C27.4132 21.0155 27.4132 21.0179 27.4084 21.0187C27.4068 21.0075 27.4013 21.0003 27.3997 20.99H27.3981Z"
        fill="#8190A2"/>
</svg>
