<svg width="28" height="28" viewBox="0 0 28 28" fill="none" xmlns="http://www.w3.org/2000/svg">
  <path
    d="M28 14C28 21.7336 21.7322 28 14 28C6.2678 28 0 21.7336 0 14C0 6.2692 6.2678 0 14 0C21.7322 0 28 6.2692 28 14Z"
    fill="#1E4471"/>
  <path fill-rule="evenodd" clip-rule="evenodd"
        d="M15.0659 15.3561C15.0659 15.9465 14.5845 16.428 13.994 16.428C13.4035 16.428 12.9221 15.9465 12.9221 15.3561V9.94151C12.9221 9.35106 13.4035 8.86963 13.994 8.86963C14.5845 8.86963 15.0659 9.35106 15.0659 9.94151V15.3561ZM12.9281 19.2428C12.9281 18.6523 13.4071 18.1709 13.9939 18.1709C14.5978 18.1709 15.078 18.6523 15.078 19.2428C15.078 19.8333 14.5978 20.3147 14.0061 20.3147C13.412 20.3147 12.9281 19.8333 12.9281 19.2428Z"
        fill="#F5F7FB"/>
</svg>
