<svg width="16" height="16" viewBox="0 0 16 16" fill="none" xmlns="http://www.w3.org/2000/svg">
  <path fill-rule="evenodd" clip-rule="evenodd"
        d="M10.9457 1.73525C10.9152 1.50823 10.7221 1.33325 10.4884 1.33325C10.2335 1.33325 10.0269 1.54149 10.0269 1.79837V2.31261H5.97876V1.79837L5.97455 1.73525C5.94398 1.50823 5.75088 1.33325 5.51722 1.33325C5.26232 1.33325 5.05569 1.54149 5.05569 1.79837V2.32416C3.16437 2.45442 2 3.67988 2 5.65712V11.2693C2 13.3914 3.30556 14.6666 5.3975 14.6666H10.6024C12.6969 14.6666 14 13.4128 14 11.3162V5.65712C14.006 3.67917 12.8454 2.45405 10.9499 2.3241V1.79837L10.9457 1.73525ZM10.0269 3.24285V3.83916L10.0311 3.90228C10.0616 4.1293 10.2548 4.30428 10.4884 4.30428C10.7433 4.30428 10.9499 4.09604 10.9499 3.83916V3.2566C12.329 3.37133 13.0813 4.20176 13.0769 5.6557V5.92503H2.92307V5.65713C2.92307 4.20411 3.6795 3.37192 5.05569 3.25669V3.83916L5.0599 3.90228C5.09046 4.1293 5.28356 4.30428 5.51722 4.30428C5.77212 4.30428 5.97876 4.09604 5.97876 3.83916V3.24285H10.0269ZM2.92307 6.85527V11.2693C2.92307 12.871 3.80901 13.7364 5.3975 13.7364H10.6024C12.1964 13.7364 13.0769 12.8891 13.0769 11.3162L13.0769 6.85527H2.92307ZM11.2008 8.81214C11.2008 8.55526 10.9942 8.34702 10.7393 8.34702L10.6709 8.35127C10.4456 8.38206 10.272 8.57667 10.272 8.81214C10.272 9.06901 10.4787 9.27725 10.7393 9.27725L10.8019 9.27301C11.0272 9.24221 11.2008 9.04761 11.2008 8.81214ZM8.00852 8.34702C8.26342 8.34702 8.47005 8.55526 8.47005 8.81214C8.47005 9.04761 8.29642 9.24221 8.07114 9.27301L8.00852 9.27725C7.74792 9.27725 7.54128 9.06901 7.54128 8.81214C7.54128 8.57667 7.71491 8.38206 7.94019 8.35127L8.00852 8.34702ZM5.73362 8.81214C5.73362 8.55526 5.52698 8.34702 5.27208 8.34702L5.20375 8.35127C4.97847 8.38206 4.80484 8.57667 4.80484 8.81214C4.80484 9.06901 5.01148 9.27725 5.26638 9.27725L5.33471 9.27301C5.55998 9.24221 5.73362 9.04761 5.73362 8.81214ZM10.7393 10.7573C10.9942 10.7573 11.2008 10.9655 11.2008 11.2224C11.2008 11.4579 11.0272 11.6525 10.8019 11.6833L10.7393 11.6875C10.4787 11.6875 10.272 11.4793 10.272 11.2224C10.272 10.9869 10.4456 10.7923 10.6709 10.7615L10.7393 10.7573ZM8.47005 11.2224C8.47005 10.9655 8.26342 10.7573 8.00852 10.7573L7.94019 10.7615C7.71491 10.7923 7.54128 10.9869 7.54128 11.2224C7.54128 11.4793 7.74792 11.6875 8.00852 11.6875L8.07114 11.6833C8.29642 11.6525 8.47005 11.4579 8.47005 11.2224ZM5.27208 10.7573C5.52698 10.7573 5.73362 10.9655 5.73362 11.2224C5.73362 11.4579 5.55998 11.6525 5.33471 11.6833L5.26638 11.6875C5.01148 11.6875 4.80484 11.4793 4.80484 11.2224C4.80484 10.9869 4.97847 10.7923 5.20375 10.7615L5.27208 10.7573Z"
        fill="#9EA9B8"/>
</svg>
