<svg width="16" height="16" viewBox="0 0 16 16" fill="none" xmlns="http://www.w3.org/2000/svg">
  <path fill-rule="evenodd" clip-rule="evenodd"
        d="M7.99986 1.33374C4.31772 1.33374 1.33319 4.31826 1.33319 8.00041C1.33319 11.6825 4.31772 14.6671 7.99986 14.6671C11.682 14.6671 14.6665 11.6825 14.6665 8.00041C14.6665 4.31826 11.682 1.33374 7.99986 1.33374ZM7.99986 2.33374C11.1297 2.33374 13.6665 4.87055 13.6665 8.00041C13.6665 11.1303 11.1297 13.6671 7.99986 13.6671C4.87 13.6671 2.33319 11.1303 2.33319 8.00041C2.33319 4.87055 4.87 2.33374 7.99986 2.33374ZM8.2697 5.1635C8.23659 4.91945 8.02739 4.73135 7.77426 4.73135C7.49812 4.73135 7.27426 4.95521 7.27426 5.23135V8.46268L7.27983 8.53718C7.30192 8.68388 7.38848 8.81476 7.5181 8.89208L10.0314 10.3914L10.092 10.4223C10.3186 10.5189 10.5873 10.4356 10.717 10.2182L10.7478 10.1576C10.8444 9.93102 10.7611 9.6623 10.5438 9.53262L8.27399 8.17808L8.27426 5.23135L8.2697 5.1635Z"
        fill="#9EA9B8"/>
</svg>
