<svg width="28" height="24" viewBox="0 0 28 24" fill="none" xmlns="http://www.w3.org/2000/svg">
  <path
    d="M13.0004 17.6928C13.0004 17.1408 13.4484 16.6848 14.0004 16.6848C14.5524 16.6848 15.0004 17.1261 15.0004 17.6781V17.6928C15.0004 18.2448 14.5524 18.6928 14.0004 18.6928C13.4484 18.6928 13.0004 18.2448 13.0004 17.6928Z"
    fill="#EB5757"/>
  <path
    d="M4.39425 23.2239H23.7036C25.2329 23.1439 26.4089 21.8412 26.3303 20.3119C26.3129 20.0025 26.2463 19.6972 26.1289 19.4119L16.4262 2.43054C15.6849 1.09054 13.9983 0.605211 12.6583 1.34788C12.2023 1.59854 11.8263 1.97454 11.5743 2.43054L1.87158 19.4119C1.29558 20.8305 1.97825 22.4465 3.39558 23.0239C3.68358 23.1399 3.98758 23.2065 4.29692 23.2239"
    stroke="#EB5757" stroke-width="1.5" stroke-linecap="round" stroke-linejoin="round"/>
  <path d="M13.9865 13.8615V9.72815" stroke="#EB5757" stroke-width="1.5" stroke-linecap="round"
        stroke-linejoin="round"/>
</svg>
