<svg width="16" height="28" viewBox="0 0 16 28" fill="none" xmlns="http://www.w3.org/2000/svg">
  <path
    d="M11.931 10.8198C11.931 10.7314 11.9063 10.6442 11.8583 10.5671L8.6998 5.55493C8.61264 5.41725 8.4617 5.33325 8.29875 5.33325C8.1358 5.33325 7.98485 5.41725 7.8977 5.55493L4.73917 10.5671C4.64759 10.713 4.64191 10.8975 4.72591 11.0484C4.80927 11.2 4.9678 11.2935 5.14022 11.2935H11.4573C11.6297 11.2935 11.7882 11.2 11.8716 11.0484C11.9114 10.977 11.931 10.8981 11.931 10.8198Z"
    fill="#9EA9B8"/>
  <path
    d="M11.931 17.1802C11.931 17.2686 11.9063 17.3558 11.8583 17.4329L8.6998 22.4451C8.61264 22.5828 8.4617 22.6668 8.29875 22.6668C8.1358 22.6668 7.98485 22.5828 7.8977 22.4451L4.73917 17.4329C4.64759 17.287 4.64191 17.1025 4.72591 16.9516C4.80927 16.8 4.9678 16.7065 5.14022 16.7065H11.4573C11.6297 16.7065 11.7882 16.8 11.8716 16.9516C11.9114 17.023 11.931 17.1019 11.931 17.1802Z"
    fill="#9EA9B8"/>
</svg>
