<svg width="24" height="24" viewBox="0 0 24 24" fill="none" xmlns="http://www.w3.org/2000/svg">
  <path fill-rule="evenodd" clip-rule="evenodd"
        d="M4 7C4 6.44772 4.44772 6 5 6H19C19.5523 6 20 6.44772 20 7C20 7.55228 19.5523 8 19 8H5C4.44772 8 4 7.55228 4 7ZM6.66667 12C6.66667 11.4477 7.11438 11 7.66667 11H16.3333C16.8856 11 17.3333 11.4477 17.3333 12C17.3333 12.5523 16.8856 13 16.3333 13H7.66667C7.11438 13 6.66667 12.5523 6.66667 12ZM11.2222 16C10.6699 16 10.2222 16.4477 10.2222 17C10.2222 17.5523 10.6699 18 11.2222 18H12.7778C13.3301 18 13.7778 17.5523 13.7778 17C13.7778 16.4477 13.3301 16 12.7778 16H11.2222Z"
        fill="#9EA9B8"/>
</svg>
