<svg width="28" height="21" viewBox="0 0 28 21" fill="none" xmlns="http://www.w3.org/2000/svg">
  <path d="M0 7.5H28V13.625H0V7.5Z" fill="#F5F6F7"/>
  <path d="M23.625 0.9375H4.375C1.47569 0.9375 0 3.09219 0 5.75V7.5H28V5.75C28 3.09219 26.5243 0.9375 23.625 0.9375Z"
        fill="#FF9933"/>
  <path
    d="M0 15.375C0 18.0328 1.47569 20.1875 4.375 20.1875H23.625C26.5243 20.1875 28 18.0328 28 15.375V13.625H0V15.375Z"
    fill="#128807"/>
  <path fill-rule="evenodd" clip-rule="evenodd"
        d="M14.1354 7.75513C14.6944 7.75513 15.2409 7.92094 15.7056 8.23159C16.1703 8.54224 16.5324 8.98377 16.7462 9.50029C16.9599 10.0168 17.0156 10.5851 16.9062 11.1333C16.7968 11.6815 16.5273 12.1849 16.1317 12.5799C15.7362 12.9749 15.2323 13.2436 14.684 13.3521C14.1356 13.4606 13.5674 13.4041 13.0512 13.1896C12.535 12.975 12.094 12.6122 11.7841 12.147C11.4742 11.6818 11.3092 11.1351 11.3101 10.5761C11.3113 9.82759 11.6096 9.11013 12.1393 8.58124C12.669 8.05235 13.3869 7.75524 14.1354 7.75513ZM12.252 8.97794C12.3006 9.03306 12.3093 9.09213 12.2769 9.14157C12.2632 9.16433 12.242 9.18164 12.217 9.19056C12.1978 9.19771 12.1771 9.20009 12.1568 9.1975C12.1364 9.19491 12.117 9.18743 12.1002 9.17569C12.0241 9.28458 11.9573 9.3996 11.9003 9.51956C11.9663 9.56288 11.9882 9.61713 11.9663 9.67706C11.9546 9.70757 11.9315 9.73231 11.9018 9.74604C11.8722 9.75976 11.8383 9.76139 11.8075 9.75056C11.776 9.81356 11.7064 10.0796 11.7056 10.1356C11.7345 10.1411 11.7606 10.1568 11.7791 10.1798C11.7986 10.2026 11.8086 10.232 11.8071 10.262C11.7988 10.3443 11.748 10.3793 11.6706 10.3823C11.6583 10.4615 11.6596 10.7266 11.6719 10.7787C11.7541 10.7874 11.7974 10.8233 11.8044 10.8859C11.8141 10.9533 11.7817 10.997 11.7029 11.0276C11.7266 11.1576 11.7603 11.2853 11.8044 11.4104C11.8353 11.4011 11.8683 11.4022 11.8985 11.4135C11.9278 11.4262 11.951 11.4481 11.9632 11.4783C11.9742 11.5019 11.9764 11.5264 11.9707 11.5522C11.9666 11.5714 11.9581 11.5893 11.9459 11.6047C11.9337 11.62 11.918 11.6323 11.9003 11.6406C11.9589 11.7622 12.0236 11.8768 12.1002 11.9844C12.1684 11.9508 12.2279 11.9586 12.2682 12.0068C12.2859 12.0265 12.296 12.052 12.2966 12.0785C12.298 12.0981 12.2946 12.1178 12.2866 12.1357C12.2787 12.1537 12.2665 12.1695 12.2511 12.1818C12.3386 12.2841 12.4318 12.3778 12.5333 12.4639C12.5906 12.4136 12.6501 12.4058 12.7013 12.4416C12.7245 12.4578 12.7407 12.4793 12.7481 12.5055C12.7535 12.5241 12.7546 12.5436 12.7514 12.5627C12.7482 12.5818 12.7408 12.5999 12.7298 12.6158C12.8404 12.6919 12.9546 12.7575 13.0741 12.8144C13.1204 12.7492 13.1734 12.7273 13.2307 12.7492C13.2557 12.7582 13.2773 12.7745 13.2928 12.796C13.3147 12.831 13.3178 12.8695 13.3051 12.9106C13.4311 12.9553 13.5579 12.9894 13.6892 13.0126C13.715 12.9386 13.7596 12.9041 13.8191 12.9084C13.8467 12.9106 13.8716 12.9189 13.8935 12.9378C13.9241 12.9658 13.9386 13.0012 13.9359 13.0449C14.0707 13.0546 14.2024 13.0554 14.3332 13.0449C14.3428 12.9605 14.3765 12.9181 14.4443 12.9084C14.4701 12.9049 14.4963 12.9101 14.5187 12.9233C14.5351 12.9326 14.5492 12.9454 14.5599 12.9609C14.5707 12.9763 14.5778 12.994 14.5808 13.0126C14.7129 12.9881 14.8411 12.9544 14.9649 12.9102C14.954 12.8275 14.9741 12.7781 15.0297 12.7523C15.0499 12.7436 15.0721 12.7401 15.094 12.7422C15.1168 12.7439 15.1373 12.7509 15.1539 12.7658C15.1701 12.7794 15.1837 12.796 15.1994 12.8131C15.3187 12.7568 15.4331 12.6908 15.5416 12.6158C15.4969 12.5458 15.5232 12.4788 15.5595 12.4491C15.5722 12.4382 15.5869 12.43 15.6027 12.4249C15.6186 12.4198 15.6353 12.4179 15.652 12.4193C15.6686 12.4207 15.6847 12.4254 15.6995 12.4332C15.7143 12.4409 15.7274 12.4515 15.738 12.4644C15.8391 12.3778 15.934 12.2837 16.0189 12.1826C15.9694 12.1262 15.9598 12.0667 15.9961 12.0155C16.0108 11.9926 16.0334 11.9758 16.0596 11.9683C16.0782 11.9623 16.098 11.9608 16.1173 11.9637C16.1367 11.9667 16.1551 11.9741 16.1711 11.9853C16.2477 11.8751 16.3142 11.7609 16.3711 11.641C16.3072 11.5981 16.284 11.5478 16.3033 11.4905C16.3102 11.465 16.3257 11.4427 16.347 11.4271C16.364 11.4152 16.3835 11.4075 16.404 11.4044C16.4245 11.4014 16.4454 11.4031 16.4651 11.4096C16.4936 11.3479 16.5644 11.088 16.5684 11.025C16.5381 11.0195 16.5108 11.0034 16.4914 10.9795C16.4812 10.9677 16.4735 10.9539 16.469 10.939C16.4644 10.9241 16.4629 10.9084 16.4647 10.8929C16.4664 10.8652 16.4778 10.839 16.4971 10.8189C16.5102 10.8051 16.5263 10.7943 16.5442 10.7875C16.5621 10.7807 16.5813 10.778 16.6003 10.7796C16.6113 10.6472 16.6113 10.5142 16.6003 10.3819C16.5168 10.3736 16.4769 10.3412 16.466 10.2751C16.4611 10.2501 16.4648 10.2242 16.4765 10.2016C16.4855 10.1841 16.4985 10.169 16.5143 10.1574C16.5302 10.1458 16.5486 10.138 16.5679 10.1347C16.545 10.004 16.5109 9.87547 16.466 9.75056C16.3851 9.76413 16.3352 9.74225 16.3085 9.68625C16.3016 9.67128 16.2977 9.65508 16.2971 9.63859C16.2965 9.62211 16.2992 9.60567 16.305 9.59023C16.3108 9.5748 16.3197 9.56068 16.331 9.54869C16.3424 9.53671 16.356 9.52711 16.3711 9.52044C16.3144 9.40016 16.2475 9.28497 16.1711 9.17613C16.1007 9.20981 16.0434 9.20194 16.0031 9.15382C15.9852 9.13348 15.9753 9.10739 15.9751 9.08031C15.9743 9.06109 15.978 9.04194 15.9859 9.02439C15.9938 9.00684 16.0057 8.99138 16.0206 8.97925C15.9342 8.87812 15.8402 8.78378 15.7393 8.69706C15.6789 8.74869 15.6203 8.75525 15.5704 8.71938C15.5478 8.70427 15.5312 8.68165 15.5236 8.6555C15.5182 8.63715 15.517 8.61779 15.5202 8.5989C15.5234 8.58002 15.5308 8.56212 15.542 8.54656C15.4329 8.47054 15.3178 8.40366 15.1977 8.34663C15.1526 8.41138 15.1019 8.43281 15.0446 8.41356C15.0192 8.40544 14.997 8.38952 14.9811 8.36806C14.9696 8.35099 14.9622 8.33144 14.9596 8.311C14.957 8.29055 14.9593 8.26978 14.9663 8.25038C14.8414 8.20524 14.7129 8.17113 14.5821 8.14844C14.5572 8.21931 14.5121 8.25606 14.4539 8.25256C14.4267 8.25169 14.4006 8.24185 14.3796 8.22456C14.364 8.21141 14.3518 8.19466 14.3441 8.17576C14.3364 8.15686 14.3334 8.13638 14.3354 8.11606C14.2032 8.10483 14.0703 8.10498 13.9381 8.1165C13.9289 8.19525 13.8948 8.24031 13.8366 8.24994C13.8105 8.25553 13.7832 8.25214 13.7592 8.24031C13.7413 8.23146 13.7258 8.21847 13.7139 8.20242C13.702 8.18636 13.6942 8.16771 13.6909 8.148C13.5602 8.17179 13.4316 8.20617 13.3064 8.25081C13.3204 8.32825 13.2985 8.379 13.2451 8.40656C13.2219 8.41838 13.1974 8.42319 13.1703 8.41838C13.1499 8.4156 13.1306 8.40756 13.1143 8.39506C13.0979 8.38255 13.0851 8.36602 13.0771 8.34706C13.0023 8.37506 12.7643 8.51288 12.7328 8.54744C12.7652 8.61219 12.7578 8.6695 12.7131 8.71063C12.7005 8.72176 12.6858 8.73025 12.6698 8.73559C12.6539 8.74093 12.637 8.74301 12.6203 8.7417C12.6035 8.7404 12.5871 8.73573 12.5722 8.72799C12.5573 8.72025 12.544 8.70958 12.5333 8.69663C12.4324 8.78293 12.3383 8.87698 12.252 8.97794Z"
        fill="#010088"/>
  <path fill-rule="evenodd" clip-rule="evenodd"
        d="M15.3473 12.6745C15.342 12.6688 15.3368 12.6648 15.3329 12.6587C15.0785 12.2699 14.8234 11.8815 14.5677 11.4936C14.562 11.4827 14.5554 11.4718 14.5502 11.4595C14.4907 11.3208 14.4325 11.1821 14.3717 11.0439C14.3696 11.0368 14.3668 11.0299 14.3634 11.0233C14.3389 11.0325 14.3165 11.043 14.2903 11.0531L14.299 11.0754C14.3537 11.2097 14.4062 11.3445 14.4618 11.4788C14.4767 11.5146 14.4828 11.5523 14.4907 11.5899C14.5335 11.7907 14.5738 11.9924 14.6171 12.1936L14.765 12.9125C14.7657 12.9142 14.766 12.916 14.7657 12.9179C14.7655 12.9197 14.7648 12.9215 14.7637 12.923L14.7575 12.9076C14.6377 12.5406 14.5147 12.174 14.3944 11.8069C14.3704 11.7351 14.3489 11.6643 14.3227 11.5925C14.3104 11.5566 14.3065 11.5199 14.3008 11.4827C14.2855 11.3786 14.2724 11.2736 14.2553 11.1695C14.2531 11.1445 14.2492 11.12 14.2457 11.096C14.2446 11.086 14.243 11.076 14.2408 11.0662C14.2146 11.0688 14.1905 11.0723 14.1643 11.0754C14.1643 11.0859 14.1652 11.0968 14.166 11.1078C14.1814 11.236 14.1945 11.3646 14.2129 11.4923C14.2225 11.5623 14.2177 11.631 14.2137 11.701C14.2111 11.7601 14.2072 11.8191 14.2045 11.8786C14.1967 11.9985 14.1905 12.118 14.1822 12.2374L14.1691 12.4841C14.1617 12.6241 14.1529 12.7637 14.1455 12.9028C14.142 12.9422 14.1411 12.9825 14.1372 13.021L14.1267 12.8884L14.1131 12.6014L14.0974 12.3455C14.093 12.258 14.0873 12.1709 14.0825 12.0834C14.0785 12.0261 14.0764 11.9688 14.0729 11.9123C14.068 11.8218 14.0624 11.7312 14.058 11.6415C14.0537 11.5937 14.0548 11.5456 14.0615 11.498C14.0707 11.4333 14.0777 11.3672 14.0855 11.3016C14.0943 11.2368 14.1017 11.1716 14.1096 11.1078C14.1105 11.0977 14.1105 11.0872 14.1118 11.0754L14.0352 11.0653C14.033 11.0828 14.0291 11.0999 14.026 11.1174C14.0079 11.251 13.9892 11.3846 13.97 11.5181C13.9648 11.5702 13.9442 11.6183 13.9267 11.6669C13.792 12.0773 13.6568 12.4881 13.5203 12.898C13.5172 12.9055 13.5159 12.9125 13.5102 12.9195C13.5102 12.9142 13.5102 12.9103 13.5124 12.9055C13.5689 12.629 13.6257 12.352 13.6843 12.0755C13.722 11.8918 13.7609 11.7085 13.7981 11.5251L13.8086 11.495C13.865 11.3563 13.9193 11.2163 13.977 11.0776C13.9791 11.0694 13.982 11.0615 13.9858 11.054C13.9617 11.0436 13.9375 11.0336 13.9132 11.0238C13.9101 11.0316 13.9053 11.0382 13.9027 11.0461C13.8423 11.1852 13.7832 11.3248 13.7229 11.4639C13.7191 11.4743 13.7144 11.4844 13.7088 11.4941C13.4507 11.8851 13.1933 12.2767 12.9367 12.6688C12.9331 12.6747 12.9285 12.6799 12.9231 12.6841C12.9253 12.6771 12.9292 12.6714 12.9319 12.6653L13.5645 11.411C13.5699 11.3996 13.5767 11.3888 13.5846 11.379L13.855 11.0163C13.8607 11.0102 13.8642 11.0045 13.8694 10.998C13.8471 10.9818 13.8292 10.9669 13.8069 10.9498C13.802 10.9555 13.7977 10.9603 13.7937 10.966C13.6992 11.0846 13.606 11.204 13.5137 11.3221C13.5032 11.3331 13.4936 11.3445 13.4818 11.3545C13.137 11.663 12.7923 11.9696 12.4462 12.2785C12.4392 12.2842 12.4322 12.2903 12.4235 12.2943C12.4274 12.2903 12.4296 12.2855 12.4322 12.2825C12.7162 11.9653 12.9979 11.6485 13.2805 11.3313C13.2967 11.3138 13.3129 11.2963 13.3282 11.2775C13.3606 11.2399 13.3969 11.2066 13.4363 11.1769L13.7504 10.9297C13.7574 10.9245 13.7627 10.9188 13.7705 10.9135C13.755 10.8926 13.739 10.872 13.7224 10.8518C13.7154 10.8562 13.7097 10.8606 13.7032 10.8654C13.5829 10.9555 13.4621 11.0448 13.3418 11.1353C13.3283 11.1455 13.314 11.1544 13.2989 11.162C12.8881 11.3694 12.4751 11.5768 12.0634 11.7841C12.0555 11.7876 12.0481 11.792 12.0389 11.792L12.0555 11.7802L12.8238 11.2771C12.9577 11.1891 13.092 11.1012 13.225 11.0128C13.2364 11.0063 13.2482 11.0006 13.2582 10.9953C13.3978 10.9363 13.5369 10.8768 13.6752 10.8173C13.6817 10.8146 13.6883 10.812 13.6962 10.8081L13.6669 10.7359C13.6585 10.7381 13.6533 10.7403 13.6467 10.7425C13.505 10.7989 13.3645 10.8562 13.2219 10.9122C13.1926 10.9231 13.1607 10.9284 13.1296 10.935L12.1737 11.1336C12.0534 11.1594 11.9309 11.1848 11.8101 11.2097C11.8052 11.2109 11.8001 11.2102 11.7957 11.208C11.8289 11.1975 11.8622 11.1856 11.895 11.1747C12.308 11.0386 12.7205 10.903 13.1322 10.7661C13.1646 10.7551 13.1992 10.7521 13.232 10.7468C13.365 10.7285 13.4975 10.7092 13.6292 10.6904C13.6373 10.689 13.6453 10.6872 13.6533 10.6851C13.6507 10.6598 13.6467 10.6344 13.6445 10.6081L13.5807 10.6151L13.3164 10.6471C13.267 10.6536 13.218 10.6589 13.1694 10.665C13.1576 10.6663 13.1462 10.6668 13.1349 10.6663L12.8566 10.6501L12.6921 10.641L12.4086 10.6243L11.9952 10.6016C11.8954 10.5963 11.7983 10.5898 11.699 10.5828C11.7147 10.5815 11.7322 10.5788 11.7493 10.5788L12.0884 10.5596L12.5364 10.5342L12.9074 10.5132L13.1401 10.4992C13.1493 10.4988 13.1602 10.5001 13.1694 10.501L13.4363 10.5329L13.6253 10.5556H13.6445C13.6467 10.5307 13.6507 10.5071 13.6533 10.48C13.6371 10.4765 13.6187 10.4738 13.6025 10.4708C13.4857 10.4546 13.3698 10.4375 13.253 10.4205C13.2287 10.4177 13.2045 10.4145 13.1804 10.4108C13.167 10.409 13.1538 10.4059 13.141 10.4016C12.7932 10.2875 12.4475 10.1724 12.1002 10.0582C12.0035 10.0265 11.9069 9.99443 11.8105 9.96196C11.8022 9.95975 11.7944 9.95604 11.7874 9.95102L11.8482 9.96327L12.5906 10.1177C12.7892 10.1593 12.9909 10.2004 13.1895 10.2424C13.2015 10.245 13.2132 10.2487 13.2245 10.2533C13.3645 10.3085 13.5032 10.3653 13.6445 10.4213L13.6655 10.4296C13.6752 10.4056 13.6857 10.3824 13.6962 10.3575C13.689 10.3532 13.6816 10.3495 13.6738 10.3465C13.5347 10.2879 13.396 10.228 13.2573 10.168C13.2465 10.1634 13.2359 10.158 13.2259 10.1518C12.8334 9.89502 12.4427 9.63689 12.0498 9.37964C12.0447 9.37677 12.0405 9.37233 12.038 9.36696L12.0538 9.37571C12.4449 9.57258 12.8365 9.76946 13.2285 9.96589C13.2932 9.99827 13.3562 10.0372 13.414 10.0814C13.5093 10.1553 13.6065 10.2262 13.7036 10.2988C13.7102 10.3036 13.7159 10.308 13.7229 10.3124L13.771 10.2516L13.7539 10.2367L13.3982 9.95714C13.386 9.94752 13.3764 9.93746 13.3659 9.92696C13.0561 9.58002 12.7459 9.23264 12.437 8.88571C12.4326 8.88213 12.4291 8.87745 12.427 8.87214C12.4362 8.87302 12.4397 8.87914 12.4436 8.88308C12.6313 9.04933 12.8172 9.21558 13.0036 9.38183L13.4857 9.81146C13.4945 9.81933 13.5028 9.82896 13.5107 9.83771L13.7867 10.1886C13.7937 10.1965 13.799 10.2048 13.8069 10.2153L13.8703 10.1667C13.8664 10.1606 13.8611 10.1558 13.858 10.1501C13.7679 10.0298 13.6782 9.90902 13.5872 9.78914C13.5779 9.77503 13.5692 9.76042 13.5614 9.74539C13.3514 9.33196 13.1432 8.91677 12.9345 8.50289C12.9305 8.49502 12.9266 8.48889 12.9257 8.48058C12.9297 8.48496 12.9336 8.48889 12.9362 8.49283L13.3834 9.17621L13.6997 9.65746C13.7106 9.67583 13.7229 9.69508 13.7299 9.71521C13.7889 9.84996 13.8458 9.98514 13.9031 10.1199C13.907 10.126 13.9097 10.1326 13.9136 10.1405L13.9862 10.1103L13.9784 10.0919C13.9237 9.95539 13.8703 9.81889 13.8147 9.68327C13.7994 9.64871 13.7937 9.61283 13.7863 9.57696C13.7386 9.34902 13.6927 9.12064 13.645 8.89227C13.5982 8.67264 13.5535 8.45477 13.5076 8.23427C13.5067 8.23296 13.5076 8.23121 13.5094 8.22683L13.5478 8.34364C13.6852 8.75621 13.8213 9.16964 13.956 9.58308C13.9674 9.61546 13.9713 9.65089 13.9762 9.68458C13.9923 9.79921 14.0085 9.91471 14.0269 10.0302C14.03 10.0521 14.0313 10.074 14.0357 10.098L14.1118 10.0884V10.0595C14.1009 9.96808 14.089 9.87621 14.0785 9.78521C14.072 9.73183 14.0672 9.67977 14.0597 9.62771C14.0554 9.5927 14.0554 9.55728 14.0597 9.52227C14.0628 9.46277 14.0672 9.40371 14.0698 9.34464L14.0912 8.98808C14.0952 8.92421 14.0965 8.85946 14.1004 8.79558C14.1061 8.71246 14.1105 8.62802 14.1153 8.54446C14.1192 8.48321 14.1223 8.42152 14.1249 8.36071C14.1284 8.28852 14.1341 8.21677 14.1402 8.14502C14.142 8.16471 14.1428 8.18483 14.1437 8.20583C14.1498 8.29377 14.1542 8.38171 14.1595 8.47008L14.1822 8.87083L14.1958 9.09571C14.2028 9.22564 14.2089 9.35602 14.2163 9.48596C14.2185 9.50564 14.2194 9.52402 14.2207 9.54327C14.2264 9.59402 14.2164 9.64433 14.212 9.69464L14.184 9.92389C14.1796 9.96721 14.173 10.0105 14.1678 10.0543C14.1669 10.0648 14.1669 10.0761 14.1639 10.0888C14.191 10.0928 14.2155 10.0954 14.2426 10.0989C14.2465 10.0801 14.2483 10.0626 14.2514 10.0442C14.2724 9.90202 14.2925 9.75983 14.3126 9.61677C14.3144 9.60627 14.3187 9.59533 14.3214 9.58439C14.464 9.15652 14.604 8.72821 14.7457 8.29946C14.7527 8.27977 14.758 8.26096 14.7689 8.24214C14.7677 8.25212 14.7661 8.26205 14.7641 8.27189C14.7002 8.58164 14.6337 8.89052 14.5703 9.19939C14.5419 9.34421 14.5117 9.48946 14.4815 9.63427C14.4793 9.64627 14.4755 9.65791 14.4701 9.66883L14.3012 10.091C14.2982 10.0971 14.296 10.1037 14.2929 10.1116C14.3192 10.1216 14.3406 10.1317 14.366 10.1418L14.376 10.1208L14.5524 9.70646C14.5594 9.69246 14.5646 9.67889 14.5738 9.66752L15.3372 8.50289C15.342 8.49677 15.346 8.49064 15.3534 8.48627C15.3504 8.49239 15.3482 8.49852 15.3442 8.50464L14.7164 9.75152C14.7099 9.76333 14.7033 9.77514 14.6954 9.78564C14.6044 9.90683 14.513 10.028 14.4233 10.1483C14.4189 10.1552 14.4141 10.1618 14.4089 10.168L14.471 10.2166C14.4759 10.2114 14.4804 10.2058 14.4845 10.2C14.5773 10.0818 14.6696 9.96327 14.7637 9.84514C14.774 9.83185 14.7856 9.81955 14.7982 9.80839C15.1439 9.49952 15.4899 9.19108 15.836 8.88308C15.8417 8.87827 15.8456 8.87346 15.8548 8.87083L15.8434 8.88483C15.7021 9.04452 15.5608 9.20333 15.4173 9.36214C15.2467 9.55246 15.0782 9.74233 14.9089 9.93264C14.9002 9.94227 14.8897 9.95058 14.8805 9.95846L14.5248 10.238L14.5073 10.252C14.5239 10.273 14.5388 10.2931 14.5563 10.3141L14.5751 10.3001L14.9395 10.0271C14.9488 10.0205 14.9585 10.0144 14.9684 10.0088C15.3884 9.79789 15.8058 9.58789 16.2232 9.37702C16.2302 9.37396 16.2358 9.37133 16.2433 9.37133C16.224 9.38402 16.2061 9.39627 16.1869 9.40808C15.8093 9.65614 15.4317 9.90421 15.0529 10.1523C15.0424 10.1584 15.0327 10.1645 15.0213 10.1693C14.8818 10.2297 14.7409 10.2892 14.6027 10.3491L14.5804 10.3579C14.5922 10.3824 14.6005 10.4056 14.611 10.4301L14.6311 10.4235C14.7715 10.368 14.9111 10.3098 15.0529 10.256C15.0879 10.242 15.1263 10.2358 15.1644 10.228L15.8088 10.0941C16.0092 10.053 16.2079 10.011 16.4087 9.96939C16.427 9.96545 16.4441 9.96152 16.4634 9.95802C16.4682 9.95802 16.4725 9.95714 16.4795 9.95977L16.4183 9.97989C15.9909 10.1212 15.5647 10.2621 15.1373 10.4016C15.1049 10.413 15.069 10.4161 15.0354 10.4213C14.9395 10.4358 14.845 10.4485 14.7519 10.462C14.7177 10.4668 14.684 10.4721 14.6499 10.4765L14.625 10.4808C14.6276 10.5066 14.6315 10.5307 14.6333 10.5587L14.6993 10.5517L14.9356 10.5237C14.9947 10.5163 15.0564 10.508 15.118 10.5023C15.1456 10.5001 15.1736 10.5027 15.202 10.504C15.262 10.5066 15.3219 10.5119 15.3845 10.5145L15.738 10.5355C15.7905 10.5386 15.843 10.5408 15.8972 10.5443L16.2577 10.5648C16.343 10.5701 16.431 10.574 16.5159 10.5793C16.5369 10.5805 16.5579 10.5824 16.5789 10.585L16.515 10.5902L16.2503 10.6046L15.9226 10.6239L15.6754 10.637C15.5617 10.644 15.4457 10.6506 15.3311 10.658C15.2681 10.6606 15.2034 10.6668 15.1399 10.6672C15.1036 10.6681 15.0655 10.6611 15.0301 10.6571C14.9523 10.648 14.8746 10.6387 14.7969 10.6291L14.6477 10.6112H14.6333C14.6315 10.6366 14.6276 10.6615 14.625 10.6882C14.7792 10.711 14.9335 10.7333 15.0879 10.7551C15.1334 10.7608 15.1732 10.7788 15.216 10.7923L16.4603 11.2031C16.4684 11.2048 16.476 11.2083 16.4826 11.2132C16.4721 11.2115 16.462 11.2097 16.4515 11.2088L15.3709 10.9835L15.0857 10.924C15.0765 10.9214 15.0642 10.9179 15.0542 10.9131C14.9137 10.8575 14.7729 10.8006 14.6315 10.7442L14.6127 10.7376C14.6025 10.7616 14.5919 10.7854 14.5808 10.809L14.604 10.8199C14.7435 10.8794 14.8822 10.9385 15.0209 10.9984C15.0319 11.0032 15.0428 11.0089 15.0542 11.0168L16.2188 11.7798C16.2245 11.7841 16.2319 11.7894 16.2367 11.7977C16.231 11.7942 16.2245 11.792 16.2197 11.7885L15.6129 11.484C15.4011 11.3764 15.1876 11.2696 14.9737 11.162C14.96 11.1553 14.9472 11.1469 14.9356 11.1371C14.8153 11.0474 14.6937 10.9573 14.5734 10.8667C14.568 10.8622 14.5623 10.8581 14.5563 10.8545C14.5397 10.8746 14.5248 10.8943 14.5073 10.9153L14.5239 10.9284C14.6412 11.022 14.7606 11.1156 14.8783 11.2088C14.8917 11.2184 14.9039 11.2296 14.9146 11.2421L15.8417 12.2794C15.8454 12.2846 15.8484 12.2903 15.8504 12.2965C15.8456 12.2912 15.839 12.2877 15.8342 12.2838C15.4864 11.9727 15.1382 11.6634 14.7895 11.3528C14.7816 11.3458 14.7745 11.3378 14.7685 11.3291L14.485 10.9678C14.481 10.9621 14.4762 10.9568 14.4714 10.9511C14.4513 10.9678 14.4316 10.9826 14.4115 11.0001C14.4132 11.0054 14.4172 11.0111 14.4207 11.0163L14.6959 11.383C14.7037 11.3936 14.7107 11.4049 14.7169 11.4166C14.9255 11.8305 15.1338 12.2453 15.342 12.6596C15.3454 12.6652 15.3477 12.6715 15.3486 12.678H15.3473V12.6745Z"
        fill="#010088"/>
  <path fill-rule="evenodd" clip-rule="evenodd"
        d="M15.3428 12.6743C15.3472 12.6788 15.3499 12.6837 15.3535 12.6877C15.3513 12.6886 15.3513 12.6899 15.3486 12.6904C15.3477 12.6841 15.3446 12.6801 15.3437 12.6743H15.3428Z"
        fill="#010088"/>
</svg>
