<svg width="24" height="24" viewBox="0 0 24 24" fill="none" xmlns="http://www.w3.org/2000/svg">
  <rect x="4" y="4" width="2.01044" height="6" rx="1.00522" fill="#9EA9B8"/>
  <rect x="4" y="4" width="6.03133" height="2" rx="1" fill="#9EA9B8"/>
  <rect width="2.01044" height="6" rx="1.00522" transform="matrix(1 0 0 -1 4 20)" fill="#9EA9B8"/>
  <rect width="6.03133" height="2" rx="1" transform="matrix(1 0 0 -1 4 20)" fill="#9EA9B8"/>
  <rect x="20.0835" y="20" width="2.01044" height="6" rx="1.00522" transform="rotate(-180 20.0835 20)" fill="#9EA9B8"/>
  <rect x="20.0835" y="20" width="6.03133" height="2" rx="1" transform="rotate(-180 20.0835 20)" fill="#9EA9B8"/>
  <rect width="2.01044" height="6" rx="1.00522" transform="matrix(-1 0 0 1 20.0835 4)" fill="#9EA9B8"/>
  <rect width="6.03133" height="2" rx="1" transform="matrix(-1 0 0 1 20.0835 4)" fill="#9EA9B8"/>
</svg>
