<svg width="68" height="36" viewBox="0 0 68 36" fill="none" xmlns="http://www.w3.org/2000/svg">
  <path d="M22.2139 34.9272H19.2323V23.3446H22.2139V34.9272Z" fill="#00BCEB"/>
  <path
    d="M46.2555 26.6633C46.1327 26.6022 45.1731 26.0449 43.7471 26.0449C41.8195 26.0449 40.4822 27.3595 40.4822 29.1343C40.4822 30.8553 41.7619 32.2264 43.7471 32.2264C45.1486 32.2264 46.1242 31.6802 46.2555 31.6117V34.7205C45.8815 34.8223 44.8624 35.1325 43.5383 35.1325C40.1847 35.1325 37.2409 32.8661 37.2409 29.1334C37.2409 25.6755 39.9042 23.1388 43.5383 23.1388C44.9361 23.1388 45.9731 23.4722 46.2555 23.5546V26.6633ZM15.1336 26.6633C15.0137 26.6022 14.0551 26.0449 12.629 26.0449C10.6976 26.0449 9.36126 27.3595 9.36126 29.1343C9.36126 30.8553 10.6419 32.2264 12.629 32.2264C14.0305 32.2264 15.0052 31.6802 15.1336 31.6117V34.7205C14.7634 34.8223 13.7453 35.1325 12.4137 35.1325C9.06282 35.1325 6.1228 32.8661 6.1228 29.1334C6.1228 25.6755 8.7861 23.1388 12.4146 23.1388C13.818 23.1388 14.8531 23.4722 15.1336 23.5546V26.6633ZM55.6346 26.0884C53.8657 26.0884 52.552 27.453 52.552 29.1343C52.552 30.8192 53.8657 32.1829 55.6346 32.1829C57.4016 32.1829 58.7191 30.8192 58.7191 29.1343C58.7191 27.453 57.4016 26.0884 55.6346 26.0884ZM61.8782 29.1343C61.8782 32.4477 59.2688 35.1325 55.6356 35.1325C52.0004 35.1325 49.3948 32.4477 49.3948 29.1334C49.3948 25.8264 52.0014 23.1388 55.6346 23.1388C59.2688 23.1388 61.8782 25.8264 61.8782 29.1343ZM33.5208 25.9774C33.4764 25.9635 32.2212 25.6237 31.1899 25.6237C29.9952 25.6237 29.3454 26.0162 29.3454 26.5726C29.3454 27.2781 30.2219 27.5243 30.712 27.6761L31.5346 27.9326C33.4707 28.5362 34.3519 29.8351 34.3519 31.246C34.3519 34.1558 31.7414 35.1334 29.4597 35.1334C27.874 35.1334 26.3884 34.8464 26.242 34.8168V32.1505C26.5046 32.2153 27.755 32.5819 29.0574 32.5819C30.5411 32.5819 31.223 32.1561 31.223 31.5006C31.223 30.9137 30.6327 30.5748 29.8932 30.347C29.7138 30.2878 29.4418 30.2045 29.2567 30.1452C27.5963 29.6305 26.2118 28.6732 26.2118 26.7568C26.2118 24.5905 27.8664 23.1361 30.6147 23.1361C32.0663 23.1361 33.432 23.4814 33.5208 23.5045V25.9764V25.9774Z"
    fill="#00BCEB"/>
  <path
    d="M2.96082 10.897C2.96082 10.099 2.29594 9.45182 1.4809 9.45182C0.665855 9.45182 3.05176e-05 10.0989 3.05176e-05 10.896V13.9373C0.00978466 14.3158 0.170037 14.6756 0.446602 14.94C0.723167 15.2043 1.09416 15.3523 1.48043 15.3523C1.86671 15.3523 2.23769 15.2043 2.51425 14.94C2.79082 14.6756 2.95107 14.3158 2.96082 13.9373V10.897ZM11.0914 6.90686C11.0914 6.52198 10.9355 6.15286 10.6578 5.88071C10.3802 5.60857 10.0037 5.45568 9.61104 5.45568C9.21842 5.45568 8.84187 5.60857 8.56424 5.88071C8.28661 6.15286 8.13064 6.52198 8.13064 6.90686V13.9373C8.13064 14.3222 8.28661 14.6913 8.56424 14.9634C8.84187 15.2356 9.21842 15.3885 9.61104 15.3885C10.0037 15.3885 10.3802 15.2356 10.6578 14.9634C10.9355 14.6913 11.0914 14.3222 11.0914 13.9373V6.9059V6.90686ZM19.223 1.44654C19.223 0.648514 18.5581 0.000450134 17.7431 0.000450134C16.9271 0.000450134 16.2622 0.648514 16.2622 1.44654V16.8267C16.2719 17.2052 16.4322 17.565 16.7088 17.8293C16.9853 18.0937 17.3563 18.2417 17.7426 18.2417C18.1289 18.2417 18.4999 18.0937 18.7764 17.8293C19.053 17.565 19.2132 17.2052 19.223 16.8267V1.44654ZM27.3536 6.90686C27.3536 6.52198 27.1976 6.15286 26.92 5.88071C26.6424 5.60857 26.2658 5.45568 25.8732 5.45568C25.4806 5.45568 25.104 5.60857 24.8264 5.88071C24.5488 6.15286 24.3928 6.52198 24.3928 6.90686V13.9373C24.3928 14.3222 24.5488 14.6913 24.8264 14.9634C25.104 15.2356 25.4806 15.3885 25.8732 15.3885C26.2658 15.3885 26.6424 15.2356 26.92 14.9634C27.1976 14.6913 27.3536 14.3222 27.3536 13.9373V6.9059V6.90686ZM35.4757 10.897C35.476 10.5141 35.3211 10.1468 35.0452 9.87584C34.7693 9.60484 34.3949 9.45231 34.0043 9.45182C33.6129 9.45157 33.2373 9.60348 32.9599 9.8742C32.6825 10.1449 32.5259 10.5123 32.5244 10.896V13.9373C32.5244 14.3209 32.6798 14.6889 32.9566 14.9602C33.2333 15.2314 33.6087 15.3838 34 15.3838C34.3914 15.3838 34.7667 15.2314 35.0435 14.9602C35.3202 14.6889 35.4757 14.3209 35.4757 13.9373V10.897ZM43.6101 6.90686C43.6004 6.52954 43.4406 6.17087 43.1649 5.90738C42.8893 5.6439 42.5195 5.49642 42.1344 5.49642C41.7494 5.49642 41.3796 5.6439 41.1039 5.90738C40.8282 6.17087 40.6685 6.52954 40.6587 6.90686V13.9373C40.6587 14.3209 40.8142 14.6889 41.091 14.9602C41.3677 15.2314 41.743 15.3838 42.1344 15.3838C42.5258 15.3838 42.9011 15.2314 43.1779 14.9602C43.4546 14.6889 43.6101 14.3209 43.6101 13.9373V6.9059V6.90686ZM51.7464 1.44654C51.7464 1.0629 51.5909 0.694958 51.3142 0.423677C51.0374 0.152397 50.6621 -1.90735e-06 50.2707 -1.90735e-06C49.8793 -1.90735e-06 49.504 0.152397 49.2272 0.423677C48.9505 0.694958 48.795 1.0629 48.795 1.44654V16.8267C48.7863 17.022 48.818 17.2169 48.8882 17.3999C48.9584 17.5829 49.0657 17.75 49.2036 17.8912C49.3415 18.0324 49.5071 18.1448 49.6905 18.2216C49.8739 18.2984 50.0713 18.338 50.2707 18.338C50.4701 18.338 50.6675 18.2984 50.8509 18.2216C51.0342 18.1448 51.1999 18.0324 51.3378 17.8912C51.4757 17.75 51.5829 17.5829 51.6532 17.3999C51.7234 17.2169 51.7551 17.022 51.7464 16.8267V1.44654ZM59.8808 6.90686C59.8808 6.1079 59.2206 5.4589 58.3867 5.4589C57.9953 5.45914 57.6201 5.61169 57.3435 5.88303C57.0668 6.15437 56.9115 6.52229 56.9115 6.9059V13.9373C56.9115 14.74 57.5726 15.3871 58.3867 15.3871C59.2206 15.3871 59.8808 14.74 59.8808 13.9373V6.9059V6.90686ZM68 10.897C68 10.513 67.8444 10.1447 67.5674 9.87312C67.2904 9.60158 66.9147 9.44905 66.5229 9.44905C66.1312 9.44905 65.7555 9.60158 65.4785 9.87312C65.2015 10.1447 65.0458 10.513 65.0458 10.897V13.9373C65.0458 14.74 65.7079 15.388 66.5229 15.388C67.337 15.388 67.9991 14.74 67.9991 13.9373V10.897H68Z"
    fill="#00BCEB"/>
  <path
    d="M66.2935 33.4016V33.583H65.7665V34.9264H65.5493V33.584H65.0204V33.4016H66.2935ZM66.404 33.4016H66.743L67.2086 34.6524H67.2162L67.6667 33.4025H67.9991V34.9264H67.7772V33.6766H67.7696L67.2974 34.9264H67.0925L66.6316 33.6766H66.6212V34.9264H66.404V33.4016Z"
    fill="#00BCEB"/>
</svg>
