<svg width="147" height="78" viewBox="0 0 147 78" fill="none" xmlns="http://www.w3.org/2000/svg">
  <path d="M48.0217 77.5418H41.5762V51.8271H48.0217V77.5418Z" fill="#00BCEB"/>
  <path
    d="M99.9937 59.1953C99.7283 59.0596 97.654 57.8223 94.5711 57.8223C90.4041 57.8223 87.5132 60.7409 87.5132 64.681C87.5132 68.502 90.2796 71.546 94.5711 71.546C97.6009 71.546 99.7099 70.3333 99.9937 70.1812V77.0831C99.1852 77.3092 96.9823 77.9977 94.1199 77.9977C86.8701 77.9977 80.5063 72.9663 80.5063 64.679C80.5063 57.0023 86.2637 51.3705 94.1199 51.3705C97.1415 51.3705 99.3833 52.1105 99.9937 52.2934V59.1953ZM32.7156 59.1953C32.4563 59.0596 30.384 57.8223 27.3012 57.8223C23.126 57.8223 20.2371 60.7409 20.2371 64.681C20.2371 68.502 23.0056 71.546 27.3012 71.546C30.331 71.546 32.4379 70.3333 32.7156 70.1812V77.0831C31.9153 77.3092 29.7144 77.9977 26.8357 77.9977C19.592 77.9977 13.2363 72.9663 13.2363 64.679C13.2363 57.0023 18.9938 51.3705 26.8377 51.3705C29.8716 51.3705 32.1092 52.1105 32.7156 52.2934V59.1953ZM120.269 57.9189C116.445 57.9189 113.605 60.9485 113.605 64.681C113.605 68.4218 116.445 71.4494 120.269 71.4494C124.089 71.4494 126.937 68.4218 126.937 64.681C126.937 60.9485 124.089 57.9189 120.269 57.9189ZM133.766 64.681C133.766 72.0372 128.125 77.9977 120.271 77.9977C112.413 77.9977 106.78 72.0372 106.78 64.679C106.78 57.3373 112.415 51.3705 120.269 51.3705C128.125 51.3705 133.766 57.3372 133.766 64.681ZM72.4643 57.6723C72.3683 57.6415 69.655 56.8871 67.4255 56.8871C64.8428 56.8871 63.4382 57.7586 63.4382 58.9939C63.4382 60.5601 65.3328 61.1067 66.3924 61.4438L68.1707 62.0132C72.356 63.3533 74.2609 66.237 74.2609 69.3693C74.2609 75.8293 68.6178 77.9998 63.6852 77.9998C60.2573 77.9998 57.0458 77.3626 56.7293 77.2969V71.3774C57.2969 71.5213 60.0001 72.3352 62.8155 72.3352C66.0229 72.3352 67.497 71.3898 67.497 69.9346C67.497 68.6315 66.2209 67.8792 64.6223 67.3736C64.2344 67.242 63.6464 67.057 63.2463 66.9255C59.6571 65.7827 56.664 63.6575 56.664 59.4029C56.664 54.5933 60.241 51.3643 66.1821 51.3643C69.3201 51.3643 72.2723 52.131 72.4643 52.1824V57.6702V57.6723Z"
    fill="#00BCEB"/>
  <path
    d="M6.40054 24.1927C6.40054 22.421 4.96322 20.9842 3.20129 20.9842C1.43936 20.9842 0 22.4209 0 24.1906V30.9425C0.0210862 31.7829 0.367514 32.5817 0.965382 33.1686C1.56325 33.7555 2.36524 34.0839 3.20028 34.0839C4.03531 34.0839 4.83729 33.7555 5.43516 33.1686C6.03303 32.5817 6.37945 31.7829 6.40054 30.9425V24.1927ZM23.977 15.3341C23.977 14.4796 23.6398 13.6601 23.0397 13.0559C22.4395 12.4517 21.6255 12.1123 20.7767 12.1123C19.928 12.1123 19.114 12.4517 18.5138 13.0559C17.9136 13.6601 17.5765 14.4796 17.5765 15.3341V30.9425C17.5765 31.797 17.9136 32.6165 18.5138 33.2207C19.114 33.8249 19.928 34.1643 20.7767 34.1643C21.6255 34.1643 22.4395 33.8249 23.0397 33.2207C23.6398 32.6165 23.977 31.797 23.977 30.9425V15.332V15.3341ZM41.5555 3.21156C41.5555 1.43983 40.1182 0.00105667 38.3563 0.00105667C36.5923 0.00105667 35.155 1.43983 35.155 3.21156V37.3573C35.1761 38.1976 35.5225 38.9965 36.1204 39.5834C36.7182 40.1702 37.5202 40.4988 38.3552 40.4988C39.1903 40.4988 39.9923 40.1702 40.5901 39.5834C41.188 38.9965 41.5344 38.1976 41.5555 37.3573V3.21156ZM59.132 15.3341C59.132 14.4796 58.7948 13.6601 58.1946 13.0559C57.5945 12.4517 56.7805 12.1123 55.9317 12.1123C55.0829 12.1123 54.2689 12.4517 53.6688 13.0559C53.0686 13.6601 52.7314 14.4796 52.7314 15.3341V30.9425C52.7314 31.797 53.0686 32.6165 53.6688 33.2207C54.2689 33.8249 55.0829 34.1643 55.9317 34.1643C56.7805 34.1643 57.5945 33.8249 58.1946 33.2207C58.7948 32.6165 59.132 31.797 59.132 30.9425V15.332V15.3341ZM76.6901 24.1927C76.6906 23.3427 76.3558 22.5272 75.7594 21.9256C75.1629 21.324 74.3535 20.9853 73.5092 20.9842C72.663 20.9837 71.8511 21.3209 71.2514 21.922C70.6517 22.523 70.3132 23.3387 70.3099 24.1906V30.9425C70.3099 31.7943 70.646 32.6111 71.2443 33.2134C71.8425 33.8157 72.6539 34.154 73.5 34.154C74.3461 34.154 75.1575 33.8157 75.7557 33.2134C76.354 32.6111 76.6901 31.7943 76.6901 30.9425V24.1927ZM94.2747 15.3341C94.2537 14.4964 93.9083 13.7001 93.3124 13.1152C92.7164 12.5302 91.917 12.2028 91.0846 12.2028C90.2523 12.2028 89.4529 12.5302 88.8569 13.1152C88.2609 13.7001 87.9156 14.4964 87.8946 15.3341V30.9425C87.8946 31.7943 88.2307 32.6111 88.8289 33.2134C89.4272 33.8157 90.2386 34.154 91.0846 34.154C91.9307 34.154 92.7421 33.8157 93.3403 33.2134C93.9386 32.6111 94.2747 31.7943 94.2747 30.9425V15.332V15.3341ZM111.863 3.21156C111.863 2.35981 111.527 1.54295 110.929 0.94067C110.331 0.338398 109.519 4.95911e-05 108.673 4.95911e-05C107.827 4.95911e-05 107.016 0.338398 106.418 0.94067C105.819 1.54295 105.483 2.35981 105.483 3.21156V37.3573C105.464 37.7908 105.533 38.2237 105.685 38.6299C105.837 39.0361 106.068 39.4072 106.367 39.7207C106.665 40.0342 107.023 40.2838 107.419 40.4542C107.816 40.6247 108.242 40.7126 108.673 40.7126C109.104 40.7126 109.531 40.6247 109.928 40.4542C110.324 40.2838 110.682 40.0342 110.98 39.7207C111.278 39.4072 111.51 39.0361 111.662 38.6299C111.814 38.2237 111.882 37.7908 111.863 37.3573V3.21156ZM129.448 15.3341C129.448 13.5603 128.021 12.1195 126.218 12.1195C125.372 12.12 124.561 12.4587 123.963 13.0611C123.365 13.6635 123.029 14.4803 123.029 15.332V30.9425C123.029 32.7245 124.458 34.1612 126.218 34.1612C128.021 34.1612 129.448 32.7245 129.448 30.9425V15.332V15.3341ZM147 24.1927C147 23.3402 146.664 22.5224 146.065 21.9196C145.466 21.3167 144.654 20.9781 143.807 20.9781C142.96 20.9781 142.148 21.3167 141.549 21.9196C140.95 22.5224 140.614 23.3402 140.614 24.1927V30.9425C140.614 32.7245 142.045 34.1632 143.807 34.1632C145.567 34.1632 146.998 32.7245 146.998 30.9425V24.1927H147Z"
    fill="#00BCEB"/>
</svg>
