<svg width="57" height="30" viewBox="0 0 57 30" fill="none" xmlns="http://www.w3.org/2000/svg">
  <path d="M18.5689 29.8239H16.0766V19.9336H18.5689V29.8239Z" fill="#00BCEB"/>
  <path d="M38.6655 22.7675C38.5629 22.7153 37.7608 22.2395 36.5687 22.2395C34.9574 22.2395 33.8395 23.362 33.8395 24.8774C33.8395 26.347 34.9093 27.5178 36.5687 27.5178C37.7403 27.5178 38.5558 27.0514 38.6655 26.9929V29.6474C38.3529 29.7344 37.5011 29.9992 36.3942 29.9992C33.5909 29.9992 31.1301 28.064 31.1301 24.8766C31.1301 21.924 33.3564 19.758 36.3942 19.758C37.5626 19.758 38.4295 20.0426 38.6655 20.1129V22.7675ZM12.6504 22.7675C12.5501 22.7153 11.7488 22.2395 10.5567 22.2395C8.94225 22.2395 7.82516 23.362 7.82516 24.8774C7.82516 26.347 8.89567 27.5178 10.5567 27.5178C11.7283 27.5178 12.543 27.0514 12.6504 26.9929V29.6474C12.3409 29.7344 11.4898 29.9992 10.3767 29.9992C7.57569 29.9992 5.11809 28.064 5.11809 24.8766C5.11809 21.924 7.34437 19.758 10.3775 19.758C11.5506 19.758 12.4159 20.0426 12.6504 20.1129V22.7675ZM46.5057 22.2766C45.027 22.2766 43.9289 23.4418 43.9289 24.8774C43.9289 26.3162 45.027 27.4806 46.5057 27.4806C47.9828 27.4806 49.084 26.3162 49.084 24.8774C49.084 23.4418 47.9828 22.2766 46.5057 22.2766ZM51.7248 24.8774C51.7248 27.7067 49.5435 29.9992 46.5065 29.9992C43.4678 29.9992 41.2897 27.7067 41.2897 24.8766C41.2897 22.0529 43.4686 19.758 46.5057 19.758C49.5435 19.758 51.7248 22.0529 51.7248 24.8774ZM28.0204 22.1818C27.9833 22.1699 26.9341 21.8798 26.072 21.8798C25.0733 21.8798 24.5302 22.215 24.5302 22.6901C24.5302 23.2924 25.2628 23.5027 25.6725 23.6323L26.3602 23.8513C27.9786 24.3668 28.7151 25.4758 28.7151 26.6806C28.7151 29.1652 26.5331 30 24.6257 30C23.3002 30 22.0584 29.755 21.936 29.7297V27.4529C22.1555 27.5083 23.2007 27.8213 24.2894 27.8213C25.5296 27.8213 26.0996 27.4577 26.0996 26.898C26.0996 26.3968 25.6062 26.1075 24.9881 25.913C24.8381 25.8624 24.6107 25.7912 24.456 25.7407C23.0681 25.3011 21.9108 24.4837 21.9108 22.8474C21.9108 20.9975 23.2939 19.7556 25.5912 19.7556C26.8046 19.7556 27.9462 20.0505 28.0204 20.0702V22.1809V22.1818Z" fill="#00BCEB"/>
  <path d="M2.47497 9.30487C2.47497 8.62344 1.91918 8.07084 1.23788 8.07084C0.556572 8.07084 0 8.62341 0 9.30405V11.901C0.00815361 12.2242 0.142111 12.5314 0.373295 12.7571C0.604479 12.9829 0.914594 13.1092 1.23749 13.1092C1.56038 13.1092 1.87049 12.9829 2.10167 12.7571C2.33286 12.5314 2.46681 12.2242 2.47497 11.901V9.30487ZM9.27145 5.89771C9.27145 5.56907 9.14107 5.25388 8.909 5.0215C8.67693 4.78911 8.36217 4.65856 8.03397 4.65856C7.70577 4.65856 7.39101 4.78911 7.15894 5.0215C6.92687 5.25388 6.79648 5.56907 6.79648 5.89771V11.901C6.79648 12.2296 6.92687 12.5448 7.15894 12.7772C7.39101 13.0096 7.70577 13.1401 8.03397 13.1401C8.36217 13.1401 8.67693 13.0096 8.909 12.7772C9.14107 12.5448 9.27145 12.2296 9.27145 11.901V5.89689V5.89771ZM16.0687 1.23519C16.0687 0.553762 15.5129 0.000386238 14.8316 0.000386238C14.1495 0.000386238 13.5938 0.553762 13.5938 1.23519V14.3682C13.6019 14.6914 13.7359 14.9986 13.9671 15.2243C14.1982 15.4501 14.5083 15.5764 14.8312 15.5764C15.1541 15.5764 15.4642 15.4501 15.6954 15.2243C15.9266 14.9986 16.0606 14.6914 16.0687 14.3682V1.23519ZM22.8652 5.89771C22.8652 5.56907 22.7348 5.25388 22.5028 5.0215C22.2707 4.78911 21.9559 4.65856 21.6277 4.65856C21.2995 4.65856 20.9848 4.78911 20.7527 5.0215C20.5206 5.25388 20.3902 5.56907 20.3902 5.89771V11.901C20.3902 12.2296 20.5206 12.5448 20.7527 12.7772C20.9848 13.0096 21.2995 13.1401 21.6277 13.1401C21.9559 13.1401 22.2707 13.0096 22.5028 12.7772C22.7348 12.5448 22.8652 12.2296 22.8652 11.901V5.89689V5.89771ZM29.6546 9.30487C29.6548 8.97794 29.5254 8.6643 29.2947 8.4329C29.0641 8.2015 28.7511 8.07126 28.4246 8.07084C28.0974 8.07062 27.7835 8.20034 27.5516 8.4315C27.3197 8.66266 27.1888 8.97641 27.1875 9.30405V11.901C27.1875 12.2285 27.3175 12.5427 27.5488 12.7744C27.7801 13.006 28.0939 13.1361 28.4211 13.1361C28.7482 13.1361 29.062 13.006 29.2933 12.7744C29.5246 12.5427 29.6546 12.2285 29.6546 11.901V9.30487ZM36.4542 5.89771C36.4461 5.57553 36.3126 5.26926 36.0821 5.04427C35.8517 4.81928 35.5426 4.69335 35.2207 4.69335C34.8988 4.69335 34.5897 4.81928 34.3593 5.04427C34.1288 5.26926 33.9953 5.57553 33.9872 5.89771V11.901C33.9872 12.2285 34.1171 12.5427 34.3485 12.7744C34.5798 13.006 34.8935 13.1361 35.2207 13.1361C35.5479 13.1361 35.8616 13.006 36.0929 12.7744C36.3243 12.5427 36.4542 12.2285 36.4542 11.901V5.89689V5.89771ZM43.2554 1.23519C43.2554 0.9076 43.1255 0.593421 42.8942 0.361777C42.6628 0.130134 42.3491 0 42.0219 0C41.6948 0 41.381 0.130134 41.1497 0.361777C40.9183 0.593421 40.7884 0.9076 40.7884 1.23519V14.3682C40.7811 14.5349 40.8076 14.7014 40.8663 14.8576C40.925 15.0139 41.0147 15.1566 41.1299 15.2772C41.2452 15.3978 41.3836 15.4937 41.5369 15.5593C41.6902 15.6249 41.8552 15.6587 42.0219 15.6587C42.1886 15.6587 42.3536 15.6249 42.5069 15.5593C42.6602 15.4937 42.7986 15.3978 42.9139 15.2772C43.0292 15.1566 43.1188 15.0139 43.1775 14.8576C43.2362 14.7014 43.2627 14.5349 43.2554 14.3682V1.23519ZM50.0551 5.89771C50.0551 5.21549 49.5033 4.66131 48.8062 4.66131C48.479 4.66152 48.1654 4.79178 47.9341 5.02348C47.7029 5.25517 47.573 5.56933 47.573 5.89689V11.901C47.573 12.5863 48.1256 13.1389 48.8062 13.1389C49.5033 13.1389 50.0551 12.5863 50.0551 11.901V5.89689V5.89771ZM56.8421 9.30487C56.8421 8.97696 56.712 8.66245 56.4805 8.43059C56.2489 8.19872 55.9348 8.06847 55.6074 8.06847C55.2799 8.06847 54.9659 8.19872 54.7343 8.43059C54.5027 8.66245 54.3727 8.97696 54.3727 9.30487V11.901C54.3727 12.5863 54.9261 13.1397 55.6074 13.1397C56.2879 13.1397 56.8413 12.5863 56.8413 11.901V9.30487H56.8421Z" fill="#00BCEB"/>
  <path d="M55.4155 28.5213V28.6762H54.975V29.8232H54.7934V28.677H54.3513V28.5213H55.4155ZM55.5079 28.5213H55.7913L56.1805 29.5893H56.1868L56.5634 28.522H56.8413V29.8232H56.6558V28.7561H56.6495L56.2547 29.8232H56.0834L55.6982 28.7561H55.6895V29.8232H55.5079V28.5213Z" fill="#00BCEB"/>
</svg>
