<svg width="12" height="3" viewBox="0 0 12 3" fill="none" xmlns="http://www.w3.org/2000/svg">
  <path
    d="M1.59517 2.09091C2.15767 2.09091 2.6179 1.63068 2.6179 1.06818C2.6179 0.505682 2.15767 0.0454545 1.59517 0.0454545C1.03267 0.0454545 0.572443 0.505682 0.572443 1.06818C0.572443 1.63068 1.03267 2.09091 1.59517 2.09091ZM6.00142 2.09091C6.56392 2.09091 7.02415 1.63068 7.02415 1.06818C7.02415 0.505682 6.56392 0.0454545 6.00142 0.0454545C5.43892 0.0454545 4.97869 0.505682 4.97869 1.06818C4.97869 1.63068 5.43892 2.09091 6.00142 2.09091ZM10.4077 2.09091C10.9702 2.09091 11.4304 1.63068 11.4304 1.06818C11.4304 0.505682 10.9702 0.0454545 10.4077 0.0454545C9.84517 0.0454545 9.38494 0.505682 9.38494 1.06818C9.38494 1.63068 9.84517 2.09091 10.4077 2.09091Z"
    fill="#9EA9B8"/>
</svg>
