<svg width="16" height="16" viewBox="0 0 16 16" fill="none" xmlns="http://www.w3.org/2000/svg">
  <path fill-rule="evenodd" clip-rule="evenodd"
        d="M5.10756 1.33325H10.8858C13.1546 1.33325 14.6667 2.9525 14.6667 5.27597V10.7232C14.6667 13.0468 13.1545 14.6666 10.8858 14.6666H5.10756C2.83985 14.6666 1.33334 13.0481 1.33334 10.7232V5.27597C1.33334 2.95364 2.84425 1.33325 5.10756 1.33325ZM10.8858 2.3358H5.10756C3.41378 2.3358 2.33535 3.49238 2.33535 5.27597V10.7232C2.33535 12.5097 3.4098 13.664 5.10756 13.664H10.8858C12.5853 13.664 13.6647 12.5078 13.6647 10.7232V5.27597C13.6647 3.49154 12.5854 2.3358 10.8858 2.3358ZM9.02058 8.30582C9.61213 7.5854 10.6773 7.51248 11.3606 8.12225L11.4475 8.20565L12.8343 9.6373C13.0268 9.8361 13.0219 10.1535 12.8232 10.3461C12.6425 10.5213 12.364 10.5331 12.1702 10.3844L12.1147 10.335L10.728 8.90346C10.4864 8.65415 10.0937 8.65182 9.8485 8.88453L9.79468 8.94239L8.30594 10.7541C7.77934 11.3959 6.83186 11.4646 6.21884 10.9268L6.13739 10.8497L5.54325 10.2431C5.38718 10.0811 5.1383 10.0657 4.96498 10.1965L4.91024 10.2455L3.88886 11.3236C3.69851 11.5245 3.3814 11.533 3.18059 11.3425C2.99803 11.1694 2.97443 10.8914 3.11467 10.6913L3.16166 10.6338L4.18282 9.55599C4.72041 8.98784 5.60569 8.95759 6.17835 9.46436L6.26183 9.5444L6.85297 10.1479C7.02577 10.3243 7.30273 10.3288 7.4813 10.1701L7.53172 10.1176L9.02058 8.30582ZM5.7151 4.42741C4.79182 4.42741 4.04309 5.17714 4.04309 6.10101C4.04309 7.02488 4.79182 7.77461 5.7151 7.77461C6.63843 7.77461 7.38778 7.02484 7.38778 6.10101C7.38778 5.17718 6.63843 4.42741 5.7151 4.42741ZM5.7151 5.42996C6.08504 5.42996 6.38578 5.73087 6.38578 6.10101C6.38578 6.47114 6.08504 6.77205 5.7151 6.77205C5.34539 6.77205 5.0451 6.47136 5.0451 6.10101C5.0451 5.73066 5.34539 5.42996 5.7151 5.42996Z"
        fill="#9EA9B8"/>
</svg>
