<svg width="48" height="48" viewBox="0 0 48 48" fill="none" xmlns="http://www.w3.org/2000/svg">
  <circle cx="24" cy="24" r="24" fill="#F5F6FA"/>
  <path
    d="M24 15.6V13.2142C24 12.3233 22.9229 11.8771 22.2929 12.5071L18.7071 16.0929C18.3166 16.4834 18.3166 17.1166 18.7071 17.5071L22.2929 21.0929C22.9229 21.7229 24 21.2767 24 20.3858V18C27.972 18 31.2 21.228 31.2 25.2C31.2 29.172 27.972 32.4 24 32.4C20.435 32.4 17.4694 29.7997 16.899 26.3949C16.7895 25.7413 16.2628 25.2 15.6 25.2C14.9373 25.2 14.3922 25.74 14.4739 26.3976C15.0629 31.1359 19.1016 34.8 24 34.8C29.304 34.8 33.6 30.504 33.6 25.2C33.6 19.896 29.304 15.6 24 15.6Z"
    fill="#9EA9B8"/>
</svg>
