<svg width="30" height="30" viewBox="0 0 30 30" fill="none" xmlns="http://www.w3.org/2000/svg">
  <path
    d="M15 6.6V4.21422C15 3.32331 13.9229 2.87715 13.2929 3.50711L9.70713 7.0929C9.31661 7.48342 9.31661 8.11659 9.70713 8.50711L13.2929 12.0929C13.9229 12.7229 15 12.2767 15 11.3858V9C18.972 9 22.2 12.228 22.2 16.2C22.2 20.172 18.972 23.4 15 23.4C11.435 23.4 8.46939 20.7997 7.89904 17.3949C7.78954 16.7413 7.26277 16.2 6.60002 16.2C5.93728 16.2 5.39216 16.74 5.47392 17.3976C6.06294 22.1359 10.1016 25.8 15 25.8C20.304 25.8 24.6 21.504 24.6 16.2C24.6 10.896 20.304 6.6 15 6.6Z"
    fill="#9EA9B8"/>
</svg>
