<svg width="16" height="13" viewBox="0 0 16 13" fill="none" xmlns="http://www.w3.org/2000/svg">
  <mask id="mask0" mask-type="alpha" maskUnits="userSpaceOnUse" x="0" y="0" width="16" height="13">
    <path fill-rule="evenodd" clip-rule="evenodd"
          d="M0.80426 0.109314L15.3328 0.109314L15.3328 12.0286L0.80426 12.0286L0.80426 0.109314Z" fill="white"/>
  </mask>
  <g mask="url(#mask0)">
    <path
      d="M15.3332 1.05668C15.3332 1.23352 15.2839 1.40784 15.1879 1.56195L8.87085 11.5864C8.69654 11.8617 8.39464 12.0297 8.06875 12.0297C7.74285 12.0297 7.44096 11.8617 7.26664 11.5864L0.949591 1.56195C0.766433 1.27016 0.755065 0.901314 0.923065 0.599419C1.0898 0.296261 1.40685 0.109314 1.7517 0.109314L14.3858 0.109314C14.7306 0.109314 15.0477 0.296261 15.2144 0.599419C15.294 0.742156 15.3332 0.900051 15.3332 1.05668Z"
      fill="#00BCEB"/>
  </g>
</svg>
