<svg width="16" height="13" viewBox="0 0 16 13" fill="none" xmlns="http://www.w3.org/2000/svg">
  <mask id="mask0" mask-type="alpha" maskUnits="userSpaceOnUse" x="0" y="0" width="16" height="13">
    <path fill-rule="evenodd" clip-rule="evenodd"
          d="M0.804199 0.109375L15.3327 0.109375L15.3327 12.0287L0.804199 12.0287L0.804199 0.109375Z" fill="white"/>
  </mask>
  <g mask="url(#mask0)">
    <path
      d="M15.3331 1.05674C15.3331 1.23359 15.2838 1.4079 15.1878 1.56201L8.87079 11.5864C8.69648 11.8618 8.39458 12.0298 8.06869 12.0298C7.74279 12.0298 7.4409 11.8618 7.26658 11.5864L0.94953 1.56201C0.766372 1.27022 0.755004 0.901375 0.923003 0.59948C1.08974 0.296322 1.40679 0.109375 1.75164 0.109375L14.3857 0.109375C14.7306 0.109375 15.0476 0.296322 15.2144 0.59948C15.294 0.742217 15.3331 0.900112 15.3331 1.05674Z"
      fill="#9EA9B8"/>
  </g>
</svg>
