<svg width="24" height="24" viewBox="0 0 24 24" fill="none" xmlns="http://www.w3.org/2000/svg">
  <path fill-rule="evenodd" clip-rule="evenodd"
        d="M20.1842 6.54352L20.8067 7.62361V7.63277C21.3264 8.54349 21.0161 9.70289 20.111 10.2323C19.8214 10.3982 19.5812 10.6383 19.4154 10.928C19.1603 11.3658 19.0902 11.8873 19.2208 12.3769C19.3514 12.8666 19.6718 13.284 20.111 13.5367C20.5502 13.7894 20.8706 14.2067 21.0012 14.6964C21.1318 15.186 21.0618 15.7075 20.8067 16.1454L20.1476 17.2438C19.6179 18.1544 18.4517 18.4653 17.5389 17.9394C17.2596 17.7798 16.9452 17.6917 16.6236 17.6831C16.1155 17.6807 15.6275 17.8814 15.2682 18.2407C14.9089 18.6 14.7081 19.088 14.7105 19.5962C14.7055 20.6491 13.8505 21.5001 12.7975 21.5H11.5435C10.487 21.5 9.63046 20.6435 9.63046 19.587C9.62711 19.2646 9.5387 18.9489 9.37416 18.6717C9.12324 18.233 8.70749 17.9128 8.21934 17.7822C7.73119 17.6516 7.21108 17.7213 6.77462 17.976C6.33064 18.2249 5.80578 18.2866 5.31619 18.1474C4.8266 18.0083 4.41265 17.6798 4.16593 17.2346L3.53435 16.1454C3.00923 15.2353 3.32056 14.0719 4.23 13.5458C4.8219 13.2041 5.18653 12.5725 5.18653 11.8891C5.18653 11.2056 4.8219 10.574 4.23 10.2323C3.3194 9.70261 3.00841 8.53639 3.53435 7.62361L4.20254 6.52522C4.72911 5.6113 5.89606 5.29601 6.81123 5.82041C7.08846 5.98494 7.40421 6.07336 7.72657 6.0767C8.77248 6.07681 9.6246 5.23693 9.63961 4.19112C9.63717 3.68459 9.83669 3.19798 10.194 2.83895C10.5513 2.47991 11.037 2.27807 11.5435 2.27808H12.7975C13.3145 2.27786 13.8096 2.48694 14.17 2.85767C14.5304 3.2284 14.7254 3.72922 14.7105 4.24604C14.7139 4.56839 14.8023 4.88415 14.9668 5.16137C15.2226 5.59752 15.6413 5.91402 16.1307 6.04109C16.6201 6.16815 17.1399 6.09534 17.5755 5.83872C18.4907 5.31432 19.6577 5.6296 20.1842 6.54352ZM12.1755 14.5252C13.6314 14.5252 14.8116 13.345 14.8116 11.8891C14.8116 10.4332 13.6314 9.25293 12.1755 9.25293C10.7196 9.25293 9.53931 10.4332 9.53931 11.8891C9.53931 13.345 10.7196 14.5252 12.1755 14.5252Z"
        fill="#9EA9B8"/>
</svg>
