<svg width="16" height="16" viewBox="0 0 16 16" fill="none" xmlns="http://www.w3.org/2000/svg">
  <path fill-rule="evenodd" clip-rule="evenodd"
        d="M5.42514 14.6666C5.15047 14.6666 4.8898 14.6453 4.64447 14.6033L4.49914 14.5759C2.91847 14.2473 1.9998 13.0366 1.9998 11.1939V4.80592C1.9998 4.58325 2.01313 4.36992 2.0398 4.16592C2.27247 2.37592 3.50247 1.33325 5.42514 1.33325H10.5751C12.7058 1.33325 13.9798 2.61325 13.9998 4.75459V4.80592V11.1939C13.9998 13.3653 12.7225 14.6666 10.5751 14.6666H5.42514ZM5.42514 2.3046C3.7878 2.3046 2.9578 3.1466 2.9578 4.80593V11.1939C2.9578 12.8533 3.7878 13.6953 5.42514 13.6953H10.5691C12.2058 13.6953 13.0305 12.8533 13.0305 11.1939V4.80593C13.0305 3.1466 12.2058 2.3046 10.5691 2.3046H5.42514ZM10.8705 10.8226C10.8705 10.5559 10.6578 10.3399 10.3951 10.3399H5.5878C5.32514 10.3399 5.1118 10.5559 5.1118 10.8226C5.1118 11.0892 5.32514 11.3052 5.5878 11.3052H10.3951C10.6578 11.3052 10.8705 11.0892 10.8705 10.8226ZM10.3951 7.51392C10.5785 7.49392 10.7578 7.58192 10.8558 7.73992C10.9538 7.89925 10.9538 8.10059 10.8558 8.25992C10.7578 8.41792 10.5785 8.50592 10.3951 8.48592H5.5878C5.3438 8.45792 5.15914 8.24925 5.15914 7.99992C5.15914 7.75059 5.3438 7.54125 5.5878 7.51392H10.3951ZM7.85114 5.18059C7.85114 4.93125 7.66647 4.72192 7.42247 4.69459H5.5938C5.34914 4.72192 5.16447 4.93125 5.16447 5.18059C5.16447 5.42925 5.34914 5.63859 5.5938 5.66592H7.42247C7.66647 5.63859 7.85114 5.42925 7.85114 5.18059Z"
        fill="#9EA9B8"/>
</svg>
