<svg width="16" height="16" viewBox="0 0 16 16" fill="none" xmlns="http://www.w3.org/2000/svg">
  <path fill-rule="evenodd" clip-rule="evenodd"
        d="M8.38213 2.99976H4.2028C2.49273 2.99976 1.33347 4.14582 1.33347 5.79176V10.4684C1.33347 12.1144 2.49273 13.2604 4.2028 13.2604H8.38213C9.99424 13.2604 11.1207 12.2368 11.2408 10.7377L13.0054 11.4589L13.0938 11.4912C13.8617 11.739 14.6666 11.1683 14.6666 10.3434V5.91743L14.6631 5.82342C14.6024 5.01897 13.7693 4.48958 13.0057 4.80115L11.2409 5.5225C11.1211 4.02234 9.99688 2.99976 8.38213 2.99976ZM10.2515 6.24478C10.251 6.25685 10.251 6.26896 10.2515 6.2811V9.9791C10.251 9.99124 10.251 10.0033 10.2515 10.0154V10.4684C10.2515 11.5577 9.53961 12.2604 8.38213 12.2604H4.2028C3.04247 12.2604 2.33347 11.5595 2.33347 10.4684V5.79176C2.33347 4.70068 3.04247 3.99976 4.2028 3.99976H8.38213C9.54206 3.99976 10.2515 4.70094 10.2515 5.79176V6.24478ZM11.2515 9.66173V6.59847L13.3838 5.72693L13.429 5.71416C13.5497 5.69457 13.6666 5.78757 13.6666 5.91743V10.3434L13.6613 10.3902C13.6339 10.5094 13.5038 10.5823 13.3835 10.5332L11.2515 9.66173Z"
        fill="#9EA9B8"/>
</svg>
